<svg width="2000px" height="977px"
 viewBox="0.00 0.00 1393.57 681.08" xmlns="http://www.w3.org/2000/svg" xmlns:xlink="http://www.w3.org/1999/xlink">
<g id="graph0" class="graph" transform="scale(1.0 1.0) rotate(0) translate(4 677.08)">
<title>ContextMapGraph</title>
<polygon fill="white" stroke="transparent" points="-4,4 -4,-677.08 1389.57,-677.08 1389.57,4 -4,4"/>
<!-- AccountsCancellations -->
<g id="node1" class="node">
<title>AccountsCancellations</title>
<polygon fill="none" stroke="black" stroke-width="2" points="4.88,-323.33 7.2,-320.51 9.94,-317.75 13.08,-315.04 16.62,-312.4 20.54,-309.84 24.84,-307.37 29.49,-305 34.49,-302.73 39.82,-300.59 45.46,-298.56 51.4,-296.67 57.62,-294.92 64.11,-293.31 70.84,-291.85 77.8,-290.55 84.96,-289.4 92.32,-288.4 99.84,-287.57 107.51,-286.9 115.31,-286.39 123.23,-286.04 131.23,-285.84 139.3,-285.8 147.42,-285.91 155.56,-286.18 163.71,-286.58 171.85,-287.12 179.96,-287.8 188.01,-288.61 195.99,-289.53 203.88,-290.58 211.65,-291.73 219.29,-292.98 226.78,-294.33 234.09,-295.76 241.22,-297.28 248.14,-298.86 254.84,-300.52 261.3,-302.23 267.49,-303.99 273.41,-305.8 279.05,-307.66 284.37,-309.54 289.38,-311.45 294.06,-313.39 298.39,-315.34 302.35,-317.31 305.95,-319.29 309.17,-321.27 312,-323.26 314.43,-325.24 316.45,-327.23 318.06,-329.2 319.25,-331.17 320.01,-333.12 320.34,-335.07 320.24,-337 319.7,-338.92 318.73,-340.82 317.32,-342.7 315.49,-344.56 313.22,-346.41 310.53,-348.23 307.42,-350.03 303.9,-351.81 299.97,-353.56 295.65,-355.28 290.94,-356.98 285.86,-358.64 280.42,-360.27 274.63,-361.86 268.51,-363.41 262.08,-364.92 255.35,-366.37 248.34,-367.78 241.07,-369.13 233.57,-370.43 225.84,-371.65 217.92,-372.81 209.83,-373.89 201.58,-374.89 193.21,-375.81 184.74,-376.63 176.2,-377.36 167.6,-377.98 158.98,-378.5 150.35,-378.9 141.75,-379.19 133.21,-379.35 124.73,-379.39 116.37,-379.29 108.12,-379.06 100.03,-378.7 92.12,-378.19 84.4,-377.54 76.9,-376.74 69.65,-375.81 62.66,-374.72 55.96,-373.49 49.56,-372.12 43.48,-370.61 37.75,-368.96 32.37,-367.18 27.36,-365.27 22.74,-363.23 18.51,-361.07 14.7,-358.8 11.3,-356.43 8.33,-353.96 5.79,-351.41 3.69,-348.78 2.04,-346.07 0.83,-343.32 0.07,-340.51 -0.23,-337.67 -0.09,-334.8 0.49,-331.92 1.52,-329.04 2.99,-326.17 4.88,-323.33"/>
<text text-anchor="middle" x="160.73" y="-329.94" font-family="sans-serif" font-size="16.00">AccountsCancellations</text>
</g>
<!-- Logins -->
<g id="node2" class="node">
<title>Logins</title>
<polygon fill="none" stroke="black" stroke-width="2" points="379.68,-145.78 383.95,-146.66 388.14,-147.64 392.21,-148.73 396.17,-149.93 400,-151.22 403.66,-152.61 407.17,-154.08 410.49,-155.64 413.62,-157.28 416.54,-158.99 419.25,-160.78 421.73,-162.63 423.98,-164.53 425.99,-166.49 427.76,-168.51 429.27,-170.56 430.53,-172.65 431.54,-174.77 432.3,-176.92 432.8,-179.1 433.05,-181.29 433.05,-183.48 432.81,-185.69 432.34,-187.89 431.63,-190.09 430.7,-192.28 429.55,-194.45 428.2,-196.6 426.65,-198.73 424.92,-200.82 423.01,-202.88 420.93,-204.9 418.71,-206.88 416.34,-208.8 413.85,-210.67 411.23,-212.49 408.51,-214.24 405.7,-215.92 402.81,-217.53 399.84,-219.07 396.81,-220.53 393.74,-221.9 390.62,-223.19 387.46,-224.39 384.29,-225.5 381.1,-226.51 377.9,-227.42 374.7,-228.23 371.51,-228.94 368.33,-229.54 365.16,-230.03 362.01,-230.41 358.89,-230.67 355.8,-230.83 352.74,-230.86 349.71,-230.78 346.73,-230.59 343.78,-230.28 340.87,-229.85 338,-229.3 335.18,-228.64 332.41,-227.86 329.68,-226.97 327.01,-225.97 324.39,-224.85 321.82,-223.63 319.31,-222.3 316.86,-220.87 314.48,-219.34 312.16,-217.71 309.91,-216 307.73,-214.2 305.64,-212.31 303.63,-210.35 301.71,-208.32 299.88,-206.22 298.16,-204.06 296.55,-201.84 295.05,-199.58 293.68,-197.28 292.43,-194.95 291.33,-192.59 290.37,-190.21 289.56,-187.81 288.91,-185.41 288.44,-183.02 288.13,-180.63 288.01,-178.26 288.07,-175.92 288.33,-173.6 288.79,-171.33 289.46,-169.1 290.33,-166.93 291.41,-164.81 292.7,-162.76 294.21,-160.79 295.94,-158.89 297.88,-157.08 300.03,-155.36 302.4,-153.73 304.97,-152.21 307.74,-150.79 310.7,-149.47 313.85,-148.27 317.18,-147.19 320.68,-146.23 324.34,-145.38 328.14,-144.66 332.07,-144.06 336.13,-143.59 340.29,-143.25 344.54,-143.03 348.86,-142.94 353.23,-142.98 357.65,-143.14 362.08,-143.43 366.52,-143.84 370.95,-144.37 375.34,-145.02 379.68,-145.78"/>
<text text-anchor="middle" x="357.73" y="-183.58" font-family="sans-serif" font-size="16.00">Logins</text>
</g>
<!-- AccountsCancellations&#45;&gt;Logins -->
<g id="edge1" class="edge">
<title>AccountsCancellations&#45;&gt;Logins</title>
<path fill="none" stroke="black" stroke-width="2" d="M171.06,-286.91C175.82,-274.77 182.74,-262.7 192.73,-254.24 220.55,-230.69 238.72,-249.32 272.73,-236.24 285.85,-231.19 299.4,-224.39 311.72,-217.5"/>
<text text-anchor="middle" x="268.23" y="-257.64" font-family="sans-serif" font-size="12.00"> &#160;&#160;&#160;&#160;&#160;&#160;&#160;&#160;&#160;&#160;&#160;&#160;&#160;&#160;&#160;&#160;&#160;&#160;&#160;&#160;&#160;&#160;&#160;&#160;&#160;&#160;&#160;&#160;&#160;&#160;&#160;&#160;&#160;&#160;&#160;&#160;&#160;&#160;&#160;</text>
<polygon fill="white" stroke="transparent" points="292.72,-207.5 292.72,-226.5 308.72,-226.5 308.72,-207.5 292.72,-207.5"/>
<polyline fill="none" stroke="black" points="308.72,-207.5 308.72,-226.5 "/>
<text text-anchor="start" x="295.72" y="-213.9" font-family="sans-serif" font-size="12.00">D</text>
<polygon fill="white" stroke="transparent" points="308.72,-207.5 308.72,-226.5 330.72,-226.5 330.72,-207.5 308.72,-207.5"/>
<polygon fill="none" stroke="black" points="308.72,-207.5 308.72,-226.5 330.72,-226.5 330.72,-207.5 308.72,-207.5"/>
<text text-anchor="start" x="311.72" y="-213.9" font-family="sans-serif" font-size="12.00">CF</text>
<polygon fill="white" stroke="transparent" points="164.06,-277.91 164.06,-294.91 178.06,-294.91 178.06,-277.91 164.06,-277.91"/>
<text text-anchor="start" x="166.06" y="-283.31" font-family="sans-serif" font-size="12.00">U</text>
</g>
<!-- AccountsCreation -->
<g id="node3" class="node">
<title>AccountsCreation</title>
<polygon fill="none" stroke="black" stroke-width="2" points="591.97,-448.06 598.08,-450.09 603.89,-452.19 609.38,-454.35 614.53,-456.57 619.3,-458.84 623.69,-461.15 627.67,-463.49 631.23,-465.85 634.35,-468.22 637.01,-470.61 639.21,-472.99 640.94,-475.36 642.19,-477.73 642.95,-480.06 643.23,-482.38 643.02,-484.65 642.33,-486.89 641.17,-489.08 639.53,-491.22 637.42,-493.31 634.87,-495.34 631.88,-497.31 628.47,-499.21 624.65,-501.04 620.44,-502.8 615.86,-504.48 610.94,-506.09 605.69,-507.62 600.15,-509.07 594.32,-510.44 588.25,-511.72 581.95,-512.92 575.45,-514.04 568.78,-515.07 561.96,-516.02 555.02,-516.88 547.99,-517.65 540.88,-518.33 533.74,-518.93 526.57,-519.44 519.4,-519.86 512.26,-520.2 505.17,-520.44 498.14,-520.59 491.2,-520.66 484.37,-520.63 477.65,-520.52 471.08,-520.31 464.65,-520.01 458.39,-519.62 452.31,-519.13 446.41,-518.56 440.71,-517.89 435.21,-517.12 429.92,-516.27 424.85,-515.31 420.01,-514.27 415.39,-513.13 411,-511.9 406.84,-510.58 402.92,-509.17 399.24,-507.66 395.79,-506.07 392.59,-504.4 389.62,-502.64 386.9,-500.79 384.41,-498.88 382.17,-496.88 380.18,-494.82 378.42,-492.69 376.91,-490.51 375.65,-488.26 374.64,-485.97 373.87,-483.63 373.36,-481.25 373.1,-478.84 373.1,-476.41 373.36,-473.96 373.88,-471.51 374.66,-469.05 375.72,-466.6 377.05,-464.17 378.65,-461.76 380.53,-459.39 382.69,-457.05 385.14,-454.77 387.87,-452.55 390.89,-450.4 394.2,-448.32 397.8,-446.33 401.68,-444.43 405.85,-442.63 410.31,-440.94 415.04,-439.37 420.05,-437.91 425.32,-436.59 430.86,-435.39 436.65,-434.34 442.68,-433.43 448.93,-432.66 455.41,-432.05 462.08,-431.58 468.94,-431.28 475.97,-431.12 483.14,-431.12 490.44,-431.28 497.85,-431.59 505.33,-432.05 512.88,-432.66 520.45,-433.42 528.04,-434.33 535.6,-435.37 543.11,-436.55 550.55,-437.86 557.88,-439.29 565.08,-440.84 572.11,-442.49 578.96,-444.26 585.59,-446.12 591.97,-448.06"/>
<text text-anchor="middle" x="497.73" y="-475.05" font-family="sans-serif" font-size="16.00">AccountsCreation</text>
</g>
<!-- AccountsCreation&#45;&gt;AccountsCancellations -->
<g id="edge2" class="edge">
<title>AccountsCreation&#45;&gt;AccountsCancellations</title>
<path fill="none" stroke="black" stroke-width="2" d="M377.04,-464.16C329.32,-454.87 275.53,-439.31 231.73,-413.24 215.94,-403.84 201.66,-389.8 190.11,-376.19"/>
<text text-anchor="middle" x="287.73" y="-403.64" font-family="sans-serif" font-size="12.00">Customer/Supplier</text>
<polygon fill="white" stroke="transparent" points="183.11,-367.19 183.11,-384.19 197.11,-384.19 197.11,-367.19 183.11,-367.19"/>
<text text-anchor="start" x="185.11" y="-372.59" font-family="sans-serif" font-size="12.00">D</text>
<polygon fill="white" stroke="transparent" points="370.04,-455.16 370.04,-472.16 384.04,-472.16 384.04,-455.16 370.04,-455.16"/>
<text text-anchor="start" x="372.04" y="-460.56" font-family="sans-serif" font-size="12.00">U</text>
</g>
<!-- AccountsCreation&#45;&gt;Logins -->
<g id="edge5" class="edge">
<title>AccountsCreation&#45;&gt;Logins</title>
<path fill="none" stroke="black" stroke-width="2" d="M422.69,-437.03C402.8,-422.43 383.58,-404.08 371.73,-382.24 346.24,-335.22 346.95,-272.11 351.18,-230.86"/>
<text text-anchor="middle" x="427.73" y="-330.64" font-family="sans-serif" font-size="12.00">Customer/Supplier</text>
<polygon fill="white" stroke="transparent" points="344.18,-221.86 344.18,-238.86 358.18,-238.86 358.18,-221.86 344.18,-221.86"/>
<text text-anchor="start" x="346.18" y="-227.26" font-family="sans-serif" font-size="12.00">D</text>
<polygon fill="white" stroke="transparent" points="415.69,-428.03 415.69,-445.03 429.69,-445.03 429.69,-428.03 415.69,-428.03"/>
<text text-anchor="start" x="417.69" y="-433.43" font-family="sans-serif" font-size="12.00">U</text>
</g>
<!-- Withdrawals -->
<g id="node4" class="node">
<title>Withdrawals</title>
<polygon fill="none" stroke="black" stroke-width="2" points="541.38,-1.77 547.93,-1.22 554.48,-0.79 561.01,-0.48 567.51,-0.29 573.93,-0.24 580.27,-0.31 586.48,-0.52 592.56,-0.85 598.47,-1.31 604.21,-1.9 609.74,-2.62 615.05,-3.46 620.13,-4.43 624.95,-5.52 629.51,-6.72 633.8,-8.04 637.8,-9.47 641.5,-11.01 644.91,-12.65 648.01,-14.39 650.8,-16.21 653.29,-18.13 655.46,-20.12 657.32,-22.19 658.88,-24.32 660.14,-26.51 661.09,-28.76 661.76,-31.05 662.14,-33.37 662.25,-35.73 662.09,-38.12 661.67,-40.51 661,-42.92 660.09,-45.33 658.96,-47.73 657.6,-50.11 656.04,-52.47 654.28,-54.8 652.33,-57.1 650.21,-59.35 647.91,-61.56 645.46,-63.71 642.86,-65.79 640.11,-67.81 637.23,-69.75 634.22,-71.62 631.09,-73.4 627.85,-75.09 624.49,-76.69 621.03,-78.19 617.46,-79.6 613.8,-80.9 610.04,-82.09 606.19,-83.18 602.26,-84.16 598.23,-85.02 594.13,-85.77 589.94,-86.41 585.67,-86.94 581.33,-87.35 576.92,-87.64 572.44,-87.82 567.89,-87.88 563.28,-87.83 558.61,-87.67 553.9,-87.4 549.14,-87.02 544.34,-86.53 539.51,-85.93 534.66,-85.23 529.8,-84.43 524.94,-83.54 520.1,-82.54 515.27,-81.45 510.48,-80.28 505.74,-79.01 501.07,-77.66 496.48,-76.23 491.99,-74.73 487.61,-73.15 483.36,-71.5 479.26,-69.79 475.33,-68.01 471.58,-66.17 468.03,-64.29 464.71,-62.35 461.62,-60.36 458.79,-58.34 456.24,-56.28 453.97,-54.18 452,-52.06 450.35,-49.92 449.03,-47.76 448.05,-45.58 447.43,-43.4 447.17,-41.21 447.27,-39.03 447.76,-36.85 448.62,-34.69 449.86,-32.54 451.48,-30.42 453.48,-28.33 455.85,-26.27 458.6,-24.26 461.71,-22.29 465.17,-20.37 468.97,-18.5 473.1,-16.7 477.55,-14.97 482.29,-13.31 487.31,-11.73 492.59,-10.23 498.1,-8.81 503.84,-7.5 509.76,-6.27 515.85,-5.16 522.09,-4.14 528.44,-3.24 534.88,-2.45 541.38,-1.77"/>
<text text-anchor="middle" x="559.73" y="-40.96" font-family="sans-serif" font-size="16.00">Withdrawals</text>
</g>
<!-- AccountsCreation&#45;&gt;Withdrawals -->
<g id="edge3" class="edge">
<title>AccountsCreation&#45;&gt;Withdrawals</title>
<path fill="none" stroke="black" stroke-width="2" d="M493.26,-431.37C489.79,-385.99 486.79,-315.06 494.73,-254.24 503.47,-187.33 511.92,-171.37 533.73,-107.52 536.1,-100.58 538.88,-93.32 541.72,-86.31"/>
<text text-anchor="middle" x="550.73" y="-257.64" font-family="sans-serif" font-size="12.00">Customer/Supplier</text>
<polygon fill="white" stroke="transparent" points="534.72,-77.31 534.72,-94.31 548.72,-94.31 548.72,-77.31 534.72,-77.31"/>
<text text-anchor="start" x="536.72" y="-82.71" font-family="sans-serif" font-size="12.00">D</text>
<polygon fill="white" stroke="transparent" points="486.26,-422.37 486.26,-439.37 500.26,-439.37 500.26,-422.37 486.26,-422.37"/>
<text text-anchor="start" x="488.26" y="-427.77" font-family="sans-serif" font-size="12.00">U</text>
</g>
<!-- UserWallet -->
<g id="node5" class="node">
<title>UserWallet</title>
<polygon fill="none" stroke="black" stroke-width="2" points="614.2,-369.04 609.27,-367.36 604.52,-365.59 599.98,-363.74 595.66,-361.82 591.58,-359.83 587.76,-357.79 584.21,-355.69 580.95,-353.54 577.99,-351.36 575.35,-349.15 573.02,-346.91 571.03,-344.66 569.38,-342.39 568.08,-340.12 567.12,-337.86 566.51,-335.6 566.25,-333.36 566.34,-331.13 566.78,-328.93 567.55,-326.76 568.66,-324.63 570.1,-322.53 571.85,-320.48 573.91,-318.47 576.26,-316.51 578.9,-314.61 581.8,-312.77 584.95,-310.99 588.34,-309.27 591.95,-307.61 595.76,-306.03 599.75,-304.51 603.91,-303.07 608.23,-301.7 612.67,-300.41 617.22,-299.2 621.87,-298.07 626.6,-297.03 631.38,-296.06 636.21,-295.19 641.07,-294.4 645.94,-293.69 650.81,-293.08 655.65,-292.56 660.47,-292.14 665.24,-291.81 669.96,-291.57 674.62,-291.43 679.2,-291.39 683.69,-291.45 688.09,-291.61 692.4,-291.87 696.59,-292.23 700.68,-292.7 704.65,-293.27 708.5,-293.95 712.22,-294.72 715.82,-295.61 719.29,-296.59 722.62,-297.68 725.82,-298.87 728.89,-300.16 731.82,-301.55 734.61,-303.04 737.25,-304.62 739.76,-306.29 742.13,-308.06 744.35,-309.9 746.42,-311.84 748.35,-313.84 750.12,-315.93 751.75,-318.07 753.21,-320.29 754.52,-322.55 755.66,-324.87 756.64,-327.24 757.44,-329.64 758.07,-332.06 758.52,-334.52 758.78,-336.98 758.86,-339.45 758.74,-341.92 758.41,-344.38 757.89,-346.82 757.15,-349.24 756.2,-351.62 755.03,-353.95 753.63,-356.24 752.01,-358.46 750.16,-360.61 748.08,-362.69 745.77,-364.68 743.22,-366.58 740.44,-368.38 737.43,-370.08 734.19,-371.66 730.72,-373.13 727.04,-374.47 723.13,-375.69 719.02,-376.77 714.71,-377.72 710.21,-378.52 705.53,-379.18 700.68,-379.7 695.68,-380.08 690.54,-380.31 685.27,-380.39 679.9,-380.32 674.44,-380.11 668.9,-379.75 663.32,-379.26 657.7,-378.62 652.07,-377.85 646.46,-376.95 640.87,-375.92 635.34,-374.77 629.89,-373.5 624.53,-372.12 619.3,-370.63 614.2,-369.04"/>
<text text-anchor="middle" x="669.73" y="-329.94" font-family="sans-serif" font-size="16.00">UserWallet</text>
</g>
<!-- AccountsCreation&#45;&gt;UserWallet -->
<g id="edge4" class="edge">
<title>AccountsCreation&#45;&gt;UserWallet</title>
<path fill="none" stroke="black" stroke-width="2" d="M547.02,-436.84C571.44,-416.52 600.72,-392.16 624.56,-372.33"/>
<text text-anchor="middle" x="624.23" y="-403.64" font-family="sans-serif" font-size="12.00">Partnership</text>
</g>
<!-- CreditBody -->
<g id="node9" class="node">
<title>CreditBody</title>
<polygon fill="none" stroke="black" stroke-width="2" points="972.05,-308.94 975.63,-311.29 978.96,-313.69 982.04,-316.13 984.86,-318.61 987.4,-321.12 989.65,-323.64 991.59,-326.16 993.23,-328.69 994.55,-331.2 995.55,-333.7 996.22,-336.17 996.55,-338.6 996.55,-340.99 996.22,-343.33 995.55,-345.62 994.56,-347.85 993.23,-350 991.58,-352.09 989.62,-354.1 987.35,-356.03 984.78,-357.87 981.92,-359.63 978.79,-361.3 975.4,-362.88 971.76,-364.36 967.88,-365.75 963.79,-367.05 959.5,-368.25 955.03,-369.35 950.39,-370.36 945.6,-371.27 940.69,-372.08 935.66,-372.8 930.55,-373.43 925.36,-373.97 920.12,-374.41 914.84,-374.76 909.55,-375.02 904.26,-375.2 898.99,-375.28 893.75,-375.28 888.57,-375.19 883.45,-375.02 878.41,-374.77 873.46,-374.43 868.63,-374.01 863.91,-373.51 859.33,-372.92 854.89,-372.26 850.6,-371.51 846.46,-370.68 842.5,-369.77 838.71,-368.79 835.1,-367.72 831.67,-366.57 828.43,-365.34 825.39,-364.03 822.54,-362.65 819.89,-361.19 817.43,-359.65 815.18,-358.03 813.13,-356.34 811.29,-354.58 809.64,-352.75 808.2,-350.84 806.96,-348.88 805.91,-346.85 805.07,-344.76 804.43,-342.62 803.98,-340.43 803.73,-338.19 803.67,-335.91 803.81,-333.6 804.15,-331.26 804.67,-328.89 805.39,-326.51 806.3,-324.13 807.39,-321.74 808.68,-319.35 810.16,-316.99 811.82,-314.64 813.67,-312.33 815.71,-310.05 817.93,-307.83 820.34,-305.66 822.93,-303.56 825.69,-301.54 828.64,-299.6 831.76,-297.75 835.06,-296 838.52,-294.36 842.15,-292.84 845.94,-291.43 849.88,-290.16 853.98,-289.02 858.21,-288.02 862.58,-287.17 867.08,-286.47 871.7,-285.93 876.42,-285.54 881.24,-285.31 886.14,-285.24 891.12,-285.33 896.16,-285.59 901.24,-286 906.36,-286.58 911.49,-287.31 916.63,-288.2 921.75,-289.24 926.83,-290.42 931.87,-291.75 936.84,-293.21 941.72,-294.81 946.51,-296.52 951.17,-298.35 955.69,-300.29 960.06,-302.32 964.25,-304.45 968.26,-306.66 972.05,-308.94"/>
<text text-anchor="middle" x="893.73" y="-329.94" font-family="sans-serif" font-size="16.00">CreditBody</text>
</g>
<!-- AccountsCreation&#45;&gt;CreditBody -->
<g id="edge6" class="edge">
<title>AccountsCreation&#45;&gt;CreditBody</title>
<path fill="none" stroke="black" stroke-width="2" d="M592.07,-448.09C647.65,-430.06 719.11,-406.02 781.73,-382.24 796.15,-376.76 811.45,-370.55 825.96,-364.46"/>
<text text-anchor="middle" x="804.23" y="-403.64" font-family="sans-serif" font-size="12.00"> &#160;&#160;&#160;&#160;&#160;&#160;&#160;&#160;&#160;&#160;&#160;&#160;&#160;&#160;&#160;&#160;&#160;&#160;&#160;&#160;&#160;&#160;&#160;&#160;&#160;&#160;&#160;&#160;&#160;&#160;&#160;&#160;&#160;&#160;&#160;&#160;&#160;&#160;&#160;</text>
<polygon fill="white" stroke="transparent" points="802.96,-354.46 802.96,-373.46 818.96,-373.46 818.96,-354.46 802.96,-354.46"/>
<polyline fill="none" stroke="black" points="818.96,-354.46 818.96,-373.46 "/>
<text text-anchor="start" x="805.96" y="-360.86" font-family="sans-serif" font-size="12.00">D</text>
<polygon fill="white" stroke="transparent" points="818.96,-354.46 818.96,-373.46 848.96,-373.46 848.96,-354.46 818.96,-354.46"/>
<polygon fill="none" stroke="black" points="818.96,-354.46 818.96,-373.46 848.96,-373.46 848.96,-354.46 818.96,-354.46"/>
<text text-anchor="start" x="821.96" y="-360.86" font-family="sans-serif" font-size="12.00">ACL</text>
<polygon fill="white" stroke="transparent" points="585.07,-439.09 585.07,-456.09 599.07,-456.09 599.07,-439.09 585.07,-439.09"/>
<text text-anchor="start" x="587.07" y="-444.49" font-family="sans-serif" font-size="12.00">U</text>
</g>
<!-- UserWallet&#45;&gt;Withdrawals -->
<g id="edge8" class="edge">
<title>UserWallet&#45;&gt;Withdrawals</title>
<path fill="none" stroke="black" stroke-width="2" d="M647.36,-293.38C637.68,-279.32 625.23,-264.45 610.73,-254.24 588.67,-238.7 568.74,-257.97 552.73,-236.24 521.03,-193.21 532.12,-128.66 544.62,-86.87"/>
<text text-anchor="middle" x="608.73" y="-184.28" font-family="sans-serif" font-size="12.00">Customer/Supplier</text>
<polygon fill="white" stroke="transparent" points="537.62,-77.87 537.62,-94.87 551.62,-94.87 551.62,-77.87 537.62,-77.87"/>
<text text-anchor="start" x="539.62" y="-83.27" font-family="sans-serif" font-size="12.00">D</text>
<polygon fill="white" stroke="transparent" points="640.36,-284.38 640.36,-301.38 654.36,-301.38 654.36,-284.38 640.36,-284.38"/>
<text text-anchor="start" x="642.36" y="-289.78" font-family="sans-serif" font-size="12.00">U</text>
</g>
<!-- InternalWallet -->
<g id="node6" class="node">
<title>InternalWallet</title>
<polygon fill="none" stroke="black" stroke-width="2" points="677.88,-195.27 676.47,-192.45 675.38,-189.64 674.6,-186.83 674.13,-184.03 674,-181.27 674.18,-178.55 674.7,-175.88 675.54,-173.26 676.71,-170.72 678.2,-168.25 680.02,-165.88 682.15,-163.59 684.6,-161.41 687.36,-159.33 690.41,-157.37 693.75,-155.53 697.38,-153.81 701.27,-152.22 705.42,-150.75 709.82,-149.42 714.45,-148.22 719.29,-147.15 724.34,-146.22 729.57,-145.41 734.97,-144.74 740.52,-144.2 746.21,-143.79 752.01,-143.51 757.9,-143.34 763.88,-143.3 769.91,-143.36 775.99,-143.55 782.08,-143.83 788.17,-144.22 794.25,-144.71 800.28,-145.29 806.27,-145.97 812.17,-146.72 817.99,-147.56 823.69,-148.47 829.27,-149.46 834.71,-150.51 839.99,-151.63 845.1,-152.81 850.02,-154.05 854.74,-155.35 859.25,-156.69 863.54,-158.09 867.59,-159.53 871.4,-161.02 874.95,-162.55 878.25,-164.13 881.28,-165.74 884.03,-167.4 886.5,-169.09 888.7,-170.82 890.6,-172.59 892.22,-174.39 893.54,-176.22 894.58,-178.09 895.32,-179.99 895.77,-181.91 895.94,-183.87 895.81,-185.85 895.4,-187.86 894.71,-189.89 893.75,-191.93 892.51,-194 891,-196.07 889.23,-198.16 887.21,-200.25 884.93,-202.34 882.41,-204.42 879.66,-206.5 876.68,-208.56 873.47,-210.59 870.06,-212.6 866.44,-214.58 862.63,-216.51 858.63,-218.39 854.45,-220.22 850.11,-221.98 845.61,-223.67 840.96,-225.28 836.18,-226.81 831.27,-228.24 826.25,-229.56 821.12,-230.78 815.9,-231.88 810.6,-232.86 805.23,-233.7 799.8,-234.41 794.32,-234.98 788.81,-235.4 783.29,-235.67 777.75,-235.78 772.22,-235.73 766.71,-235.53 761.23,-235.16 755.8,-234.62 750.43,-233.93 745.14,-233.07 739.93,-232.05 734.82,-230.87 729.83,-229.53 724.96,-228.04 720.25,-226.41 715.68,-224.63 711.29,-222.72 707.09,-220.68 703.08,-218.52 699.28,-216.25 695.71,-213.88 692.37,-211.41 689.28,-208.87 686.44,-206.25 683.88,-203.57 681.59,-200.83 679.58,-198.06 677.88,-195.27"/>
<text text-anchor="middle" x="786.73" y="-183.58" font-family="sans-serif" font-size="16.00">InternalWallet</text>
</g>
<!-- UserWallet&#45;&gt;InternalWallet -->
<g id="edge7" class="edge">
<title>UserWallet&#45;&gt;InternalWallet</title>
<path fill="none" stroke="black" stroke-width="2" d="M702.32,-292.52C717.06,-274.34 734.56,-252.76 749.78,-233.97"/>
<text text-anchor="middle" x="767.23" y="-257.64" font-family="sans-serif" font-size="12.00">Partnership</text>
</g>
<!-- NftTransaction -->
<g id="node7" class="node">
<title>NftTransaction</title>
<polygon fill="none" stroke="black" stroke-width="2" points="1142.05,-172.14 1144.73,-174.81 1147.1,-177.5 1149.15,-180.21 1150.87,-182.92 1152.25,-185.63 1153.28,-188.32 1153.96,-190.98 1154.28,-193.61 1154.25,-196.19 1153.84,-198.71 1153.08,-201.18 1151.95,-203.57 1150.46,-205.88 1148.61,-208.11 1146.41,-210.25 1143.86,-212.29 1140.97,-214.23 1137.76,-216.06 1134.23,-217.79 1130.39,-219.4 1126.26,-220.9 1121.85,-222.28 1117.17,-223.55 1112.25,-224.7 1107.1,-225.73 1101.74,-226.64 1096.19,-227.43 1090.46,-228.11 1084.59,-228.68 1078.58,-229.14 1072.46,-229.48 1066.25,-229.72 1059.97,-229.86 1053.64,-229.9 1047.29,-229.83 1040.94,-229.68 1034.6,-229.43 1028.3,-229.09 1022.06,-228.67 1015.89,-228.16 1009.81,-227.57 1003.85,-226.91 998.02,-226.17 992.34,-225.36 986.81,-224.49 981.47,-223.54 976.31,-222.53 971.36,-221.45 966.62,-220.31 962.11,-219.11 957.84,-217.84 953.81,-216.52 950.03,-215.14 946.51,-213.7 943.25,-212.21 940.26,-210.66 937.54,-209.06 935.11,-207.4 932.94,-205.68 931.06,-203.92 929.46,-202.11 928.14,-200.24 927.1,-198.33 926.33,-196.37 925.85,-194.37 925.63,-192.33 925.69,-190.25 926.01,-188.14 926.6,-186 927.45,-183.83 928.56,-181.63 929.92,-179.42 931.53,-177.2 933.37,-174.97 935.46,-172.74 937.78,-170.52 940.32,-168.31 943.09,-166.12 946.07,-163.96 949.26,-161.83 952.66,-159.75 956.25,-157.72 960.03,-155.75 963.99,-153.84 968.14,-152.02 972.45,-150.27 976.93,-148.63 981.55,-147.08 986.33,-145.64 991.24,-144.31 996.29,-143.11 1001.45,-142.04 1006.72,-141.11 1012.09,-140.32 1017.55,-139.67 1023.08,-139.18 1028.68,-138.85 1034.34,-138.67 1040.03,-138.66 1045.75,-138.81 1051.48,-139.12 1057.21,-139.61 1062.93,-140.25 1068.61,-141.06 1074.25,-142.03 1079.83,-143.16 1085.32,-144.44 1090.72,-145.88 1096.01,-147.45 1101.17,-149.17 1106.18,-151.01 1111.03,-152.98 1115.7,-155.07 1120.18,-157.26 1124.44,-159.56 1128.48,-161.94 1132.27,-164.39 1135.81,-166.92 1139.07,-169.51 1142.05,-172.14"/>
<text text-anchor="middle" x="1035.73" y="-183.58" font-family="sans-serif" font-size="16.00">NftTransaction</text>
</g>
<!-- UserWallet&#45;&gt;NftTransaction -->
<g id="edge9" class="edge">
<title>UserWallet&#45;&gt;NftTransaction</title>
<path fill="none" stroke="black" stroke-width="2" d="M736.49,-303.95C751.34,-297.68 767.04,-291.15 781.73,-285.24 814.46,-272.06 895.59,-241.24 957.42,-217.88"/>
<text text-anchor="middle" x="936.23" y="-257.64" font-family="sans-serif" font-size="12.00"> &#160;&#160;&#160;&#160;&#160;&#160;&#160;&#160;&#160;&#160;&#160;&#160;&#160;&#160;&#160;&#160;&#160;&#160;&#160;&#160;&#160;&#160;&#160;&#160;&#160;&#160;&#160;&#160;&#160;&#160;&#160;&#160;&#160;&#160;&#160;&#160;&#160;&#160;&#160;</text>
<polygon fill="white" stroke="transparent" points="950.42,-208.88 950.42,-225.88 964.42,-225.88 964.42,-208.88 950.42,-208.88"/>
<text text-anchor="start" x="952.42" y="-214.28" font-family="sans-serif" font-size="12.00">D</text>
<polygon fill="white" stroke="transparent" points="712.49,-293.95 712.49,-312.95 728.49,-312.95 728.49,-293.95 712.49,-293.95"/>
<polyline fill="none" stroke="black" points="728.49,-293.95 728.49,-312.95 "/>
<text text-anchor="start" x="715.49" y="-300.35" font-family="sans-serif" font-size="12.00">U</text>
<polygon fill="white" stroke="transparent" points="728.49,-293.95 728.49,-312.95 761.49,-312.95 761.49,-293.95 728.49,-293.95"/>
<polygon fill="none" stroke="black" points="728.49,-293.95 728.49,-312.95 761.49,-312.95 761.49,-293.95 728.49,-293.95"/>
<text text-anchor="start" x="731.49" y="-300.35" font-family="sans-serif" font-size="12.00">OHS</text>
</g>
<!-- Transactions -->
<g id="node8" class="node">
<title>Transactions</title>
<polygon fill="none" stroke="black" stroke-width="2" points="1367.9,-209.03 1364.67,-211.54 1361.21,-213.97 1357.55,-216.32 1353.68,-218.57 1349.63,-220.72 1345.4,-222.75 1341.02,-224.66 1336.5,-226.45 1331.84,-228.09 1327.08,-229.6 1322.21,-230.95 1317.27,-232.15 1312.25,-233.2 1307.17,-234.09 1302.06,-234.81 1296.92,-235.37 1291.76,-235.76 1286.6,-235.99 1281.45,-236.05 1276.32,-235.95 1271.23,-235.69 1266.19,-235.27 1261.2,-234.71 1256.28,-233.99 1251.44,-233.13 1246.68,-232.13 1242.03,-230.99 1237.48,-229.74 1233.04,-228.36 1228.73,-226.88 1224.55,-225.29 1220.51,-223.61 1216.61,-221.84 1212.87,-219.99 1209.29,-218.07 1205.88,-216.09 1202.64,-214.06 1199.58,-211.98 1196.71,-209.86 1194.03,-207.71 1191.55,-205.54 1189.27,-203.35 1187.2,-201.15 1185.35,-198.95 1183.71,-196.75 1182.3,-194.56 1181.12,-192.38 1180.18,-190.23 1179.47,-188.09 1179,-185.99 1178.78,-183.91 1178.81,-181.87 1179.09,-179.86 1179.62,-177.9 1180.4,-175.98 1181.44,-174.1 1182.74,-172.26 1184.3,-170.48 1186.12,-168.74 1188.19,-167.05 1190.51,-165.41 1193.08,-163.82 1195.91,-162.28 1198.97,-160.8 1202.28,-159.37 1205.82,-158 1209.58,-156.68 1213.56,-155.42 1217.75,-154.21 1222.14,-153.07 1226.71,-151.99 1231.47,-150.97 1236.39,-150.02 1241.46,-149.13 1246.68,-148.32 1252.01,-147.57 1257.46,-146.91 1262.99,-146.32 1268.6,-145.81 1274.27,-145.39 1279.98,-145.06 1285.72,-144.81 1291.45,-144.66 1297.17,-144.61 1302.86,-144.67 1308.49,-144.82 1314.06,-145.09 1319.53,-145.46 1324.89,-145.95 1330.12,-146.55 1335.2,-147.27 1340.13,-148.11 1344.87,-149.07 1349.41,-150.15 1353.74,-151.35 1357.84,-152.67 1361.7,-154.11 1365.3,-155.67 1368.63,-157.35 1371.69,-159.14 1374.46,-161.03 1376.93,-163.04 1379.09,-165.14 1380.95,-167.35 1382.48,-169.64 1383.7,-172.01 1384.59,-174.46 1385.16,-176.98 1385.41,-179.56 1385.33,-182.18 1384.94,-184.85 1384.22,-187.55 1383.2,-190.28 1381.86,-193.01 1380.23,-195.74 1378.31,-198.47 1376.1,-201.17 1373.63,-203.84 1370.89,-206.46 1367.9,-209.03"/>
<text text-anchor="middle" x="1278.73" y="-183.58" font-family="sans-serif" font-size="16.00">Transactions</text>
</g>
<!-- UserWallet&#45;&gt;Transactions -->
<g id="edge10" class="edge">
<title>UserWallet&#45;&gt;Transactions</title>
<path fill="none" stroke="black" stroke-width="2" d="M732.77,-301.8C748.44,-295.3 765.42,-289.21 781.73,-285.24 883.08,-260.55 912.47,-281.96 1015.73,-267.24 1082.27,-257.75 1099.54,-256.12 1163.73,-236.24 1179.23,-231.44 1195.51,-225.34 1210.8,-219.12"/>
<text text-anchor="middle" x="1170.23" y="-257.64" font-family="sans-serif" font-size="12.00"> &#160;&#160;&#160;&#160;&#160;&#160;&#160;&#160;&#160;&#160;&#160;&#160;&#160;&#160;&#160;&#160;&#160;&#160;&#160;&#160;&#160;&#160;&#160;&#160;&#160;&#160;&#160;&#160;&#160;&#160;&#160;&#160;&#160;&#160;&#160;&#160;&#160;&#160;&#160;</text>
<polygon fill="white" stroke="transparent" points="1203.8,-210.12 1203.8,-227.12 1217.8,-227.12 1217.8,-210.12 1203.8,-210.12"/>
<text text-anchor="start" x="1205.8" y="-215.52" font-family="sans-serif" font-size="12.00">D</text>
<polygon fill="white" stroke="transparent" points="708.77,-291.8 708.77,-310.8 724.77,-310.8 724.77,-291.8 708.77,-291.8"/>
<polyline fill="none" stroke="black" points="724.77,-291.8 724.77,-310.8 "/>
<text text-anchor="start" x="711.77" y="-298.2" font-family="sans-serif" font-size="12.00">U</text>
<polygon fill="white" stroke="transparent" points="724.77,-291.8 724.77,-310.8 757.77,-310.8 757.77,-291.8 724.77,-291.8"/>
<polygon fill="none" stroke="black" points="724.77,-291.8 724.77,-310.8 757.77,-310.8 757.77,-291.8 724.77,-291.8"/>
<text text-anchor="start" x="727.77" y="-298.2" font-family="sans-serif" font-size="12.00">OHS</text>
</g>
<!-- InternalWallet&#45;&gt;Withdrawals -->
<g id="edge11" class="edge">
<title>InternalWallet&#45;&gt;Withdrawals</title>
<path fill="none" stroke="black" stroke-width="2" d="M722.29,-146.46C688.74,-125.67 648.1,-100.5 615.85,-80.52"/>
<text text-anchor="middle" x="736.73" y="-110.92" font-family="sans-serif" font-size="12.00">Customer/Supplier</text>
<polygon fill="white" stroke="transparent" points="608.85,-71.52 608.85,-88.52 622.85,-88.52 622.85,-71.52 608.85,-71.52"/>
<text text-anchor="start" x="610.85" y="-76.92" font-family="sans-serif" font-size="12.00">D</text>
<polygon fill="white" stroke="transparent" points="715.29,-137.46 715.29,-154.46 729.29,-154.46 729.29,-137.46 715.29,-137.46"/>
<text text-anchor="start" x="717.29" y="-142.86" font-family="sans-serif" font-size="12.00">U</text>
</g>
<!-- NftTransaction&#45;&gt;Withdrawals -->
<g id="edge12" class="edge">
<title>NftTransaction&#45;&gt;Withdrawals</title>
<path fill="none" stroke="black" stroke-width="2" d="M958.89,-156.15C942.44,-150.03 925.09,-143.85 908.73,-138.52 819.33,-109.36 714.87,-82.53 643.7,-65.3"/>
<text text-anchor="middle" x="897.73" y="-110.92" font-family="sans-serif" font-size="12.00">Customer/Supplier</text>
<polygon fill="white" stroke="transparent" points="636.7,-56.3 636.7,-73.3 650.7,-73.3 650.7,-56.3 636.7,-56.3"/>
<text text-anchor="start" x="638.7" y="-61.7" font-family="sans-serif" font-size="12.00">D</text>
<polygon fill="white" stroke="transparent" points="951.89,-147.15 951.89,-164.15 965.89,-164.15 965.89,-147.15 951.89,-147.15"/>
<text text-anchor="start" x="953.89" y="-152.55" font-family="sans-serif" font-size="12.00">U</text>
</g>
<!-- Transactions&#45;&gt;Withdrawals -->
<g id="edge13" class="edge">
<title>Transactions&#45;&gt;Withdrawals</title>
<path fill="none" stroke="black" stroke-width="2" d="M1212.51,-155.62C1196.78,-149.21 1179.87,-143.04 1163.73,-138.52 988.16,-89.29 776.08,-64.35 655.66,-53.28"/>
<text text-anchor="middle" x="1138.73" y="-110.92" font-family="sans-serif" font-size="12.00">Customer/Supplier</text>
<polygon fill="white" stroke="transparent" points="648.66,-44.28 648.66,-61.28 662.66,-61.28 662.66,-44.28 648.66,-44.28"/>
<text text-anchor="start" x="650.66" y="-49.68" font-family="sans-serif" font-size="12.00">D</text>
<polygon fill="white" stroke="transparent" points="1205.51,-146.62 1205.51,-163.62 1219.51,-163.62 1219.51,-146.62 1205.51,-146.62"/>
<text text-anchor="start" x="1207.51" y="-152.02" font-family="sans-serif" font-size="12.00">U</text>
</g>
<!-- AccountsRequests -->
<g id="node10" class="node">
<title>AccountsRequests</title>
<polygon fill="none" stroke="black" stroke-width="2" points="627.65,-611.22 630.43,-613.94 632.83,-616.67 634.84,-619.41 636.46,-622.16 637.68,-624.88 638.48,-627.59 638.86,-630.26 638.82,-632.88 638.35,-635.46 637.46,-637.97 636.14,-640.41 634.4,-642.77 632.24,-645.05 629.66,-647.24 626.67,-649.33 623.29,-651.31 619.51,-653.19 615.36,-654.95 610.85,-656.6 605.98,-658.13 600.79,-659.55 595.28,-660.84 589.47,-662 583.38,-663.05 577.04,-663.97 570.47,-664.77 563.68,-665.46 556.71,-666.02 549.57,-666.47 542.3,-666.8 534.9,-667.02 527.42,-667.13 519.87,-667.14 512.29,-667.05 504.69,-666.86 497.1,-666.58 489.54,-666.2 482.04,-665.74 474.62,-665.19 467.31,-664.56 460.13,-663.85 453.09,-663.07 446.22,-662.22 439.54,-661.29 433.06,-660.3 426.81,-659.25 420.79,-658.14 415.03,-656.96 409.54,-655.73 404.33,-654.44 399.41,-653.09 394.79,-651.69 390.49,-650.24 386.5,-648.74 382.84,-647.18 379.51,-645.57 376.52,-643.92 373.86,-642.21 371.55,-640.46 369.58,-638.66 367.96,-636.82 366.67,-634.94 365.74,-633.01 365.14,-631.04 364.88,-629.04 364.95,-627 365.36,-624.92 366.1,-622.82 367.15,-620.69 368.52,-618.55 370.21,-616.38 372.2,-614.2 374.48,-612.02 377.06,-609.83 379.92,-607.65 383.06,-605.48 386.47,-603.33 390.14,-601.2 394.07,-599.1 398.24,-597.05 402.65,-595.04 407.28,-593.08 412.13,-591.19 417.2,-589.37 422.46,-587.64 427.91,-585.98 433.55,-584.43 439.35,-582.98 445.3,-581.64 451.41,-580.42 457.65,-579.32 464.01,-578.36 470.48,-577.53 477.04,-576.85 483.69,-576.32 490.4,-575.94 497.17,-575.72 503.98,-575.66 510.8,-575.76 517.64,-576.03 524.46,-576.46 531.25,-577.05 538,-577.81 544.68,-578.73 551.28,-579.82 557.78,-581.06 564.15,-582.45 570.39,-583.98 576.48,-585.66 582.38,-587.48 588.09,-589.42 593.58,-591.49 598.84,-593.66 603.85,-595.94 608.59,-598.31 613.04,-600.77 617.19,-603.3 621.02,-605.89 624.51,-608.53 627.65,-611.22"/>
<text text-anchor="middle" x="497.73" y="-620.47" font-family="sans-serif" font-size="16.00">AccountsRequests</text>
</g>
<!-- AccountsRequests&#45;&gt;AccountsCreation -->
<g id="edge14" class="edge">
<title>AccountsRequests&#45;&gt;AccountsCreation</title>
<path fill="none" stroke="black" stroke-width="2" d="M497.73,-575.52C497.73,-557.75 497.73,-537.77 497.73,-520.68"/>
<text text-anchor="middle" x="532.23" y="-547.87" font-family="sans-serif" font-size="12.00">Partnership</text>
</g>
<!-- NftCreation -->
<g id="node11" class="node">
<title>NftCreation</title>
<polygon fill="none" stroke="black" stroke-width="2" points="89.16,-158.91 93.16,-156.71 97.33,-154.61 101.67,-152.61 106.15,-150.72 110.75,-148.94 115.47,-147.29 120.27,-145.78 125.16,-144.4 130.1,-143.16 135.09,-142.08 140.1,-141.14 145.13,-140.37 150.16,-139.75 155.17,-139.3 160.15,-139 165.09,-138.87 169.98,-138.91 174.8,-139.11 179.53,-139.46 184.18,-139.98 188.73,-140.64 193.18,-141.46 197.5,-142.43 201.71,-143.53 205.78,-144.77 209.71,-146.13 213.5,-147.62 217.14,-149.22 220.63,-150.93 223.96,-152.73 227.12,-154.63 230.12,-156.61 232.95,-158.66 235.6,-160.77 238.08,-162.94 240.38,-165.16 242.49,-167.42 244.42,-169.71 246.17,-172.02 247.73,-174.34 249.09,-176.67 250.26,-179 251.24,-181.32 252.02,-183.63 252.6,-185.92 252.97,-188.18 253.15,-190.41 253.11,-192.6 252.87,-194.75 252.42,-196.85 251.76,-198.9 250.89,-200.9 249.8,-202.84 248.49,-204.72 246.97,-206.54 245.23,-208.3 243.28,-209.99 241.11,-211.62 238.72,-213.17 236.12,-214.66 233.31,-216.08 230.3,-217.43 227.07,-218.7 223.65,-219.91 220.03,-221.04 216.22,-222.1 212.23,-223.08 208.06,-224 203.72,-224.83 199.23,-225.6 194.59,-226.29 189.81,-226.9 184.91,-227.43 179.9,-227.88 174.79,-228.26 169.6,-228.55 164.34,-228.76 159.03,-228.89 153.68,-228.93 148.31,-228.88 142.95,-228.75 137.6,-228.52 132.29,-228.2 127.03,-227.78 121.85,-227.27 116.76,-226.66 111.78,-225.95 106.93,-225.14 102.23,-224.22 97.69,-223.21 93.34,-222.09 89.18,-220.87 85.24,-219.54 81.54,-218.11 78.08,-216.58 74.87,-214.96 71.94,-213.23 69.3,-211.41 66.94,-209.5 64.89,-207.5 63.15,-205.41 61.73,-203.24 60.62,-201 59.84,-198.7 59.39,-196.33 59.27,-193.9 59.47,-191.43 60,-188.91 60.85,-186.37 62.01,-183.8 63.49,-181.22 65.27,-178.63 67.34,-176.04 69.7,-173.48 72.33,-170.93 75.23,-168.42 78.37,-165.95 81.75,-163.53 85.35,-161.18 89.16,-158.91"/>
<text text-anchor="middle" x="161.73" y="-183.58" font-family="sans-serif" font-size="16.00">NftCreation</text>
</g>
<!-- NftCreation&#45;&gt;Withdrawals -->
<g id="edge15" class="edge">
<title>NftCreation&#45;&gt;Withdrawals</title>
<path fill="none" stroke="black" stroke-width="2" d="M229.75,-156.16C244.17,-150.07 259.38,-143.9 273.73,-138.52 342.16,-112.86 421.28,-87.52 478.93,-69.83"/>
<text text-anchor="middle" x="415.73" y="-110.92" font-family="sans-serif" font-size="12.00">Customer/Supplier</text>
<polygon fill="white" stroke="transparent" points="471.93,-60.83 471.93,-77.83 485.93,-77.83 485.93,-60.83 471.93,-60.83"/>
<text text-anchor="start" x="473.93" y="-66.23" font-family="sans-serif" font-size="12.00">D</text>
<polygon fill="white" stroke="transparent" points="222.75,-147.16 222.75,-164.16 236.75,-164.16 236.75,-147.16 222.75,-147.16"/>
<text text-anchor="start" x="224.75" y="-152.56" font-family="sans-serif" font-size="12.00">U</text>
</g>
</g>
</svg>
