<svg width="2000px" height="737px"
 viewBox="0.00 0.00 1853.64 683.02" xmlns="http://www.w3.org/2000/svg" xmlns:xlink="http://www.w3.org/1999/xlink">
<g id="graph0" class="graph" transform="scale(1.0 1.0) rotate(0) translate(4 679.02)">
<title>ContextMapGraph</title>
<polygon fill="white" stroke="transparent" points="-4,4 -4,-679.02 1849.64,-679.02 1849.64,4 -4,4"/>
<!-- AccountsCancellationsContext -->
<g id="node1" class="node">
<title>AccountsCancellationsContext</title>
<polygon fill="none" stroke="black" stroke-width="2" points="232.11,-299.86 244.75,-298.91 257.49,-298.08 270.29,-297.38 283.08,-296.81 295.81,-296.37 308.45,-296.06 320.94,-295.89 333.24,-295.85 345.3,-295.96 357.09,-296.21 368.55,-296.59 379.66,-297.11 390.38,-297.77 400.68,-298.57 410.54,-299.5 419.92,-300.56 428.81,-301.75 437.18,-303.07 445.02,-304.5 452.32,-306.05 459.06,-307.71 465.25,-309.47 470.87,-311.33 475.92,-313.29 480.41,-315.32 484.33,-317.44 487.7,-319.63 490.52,-321.88 492.8,-324.18 494.56,-326.53 495.79,-328.92 496.52,-331.35 496.76,-333.79 496.53,-336.25 495.84,-338.72 494.7,-341.18 493.14,-343.64 491.16,-346.08 488.79,-348.49 486.03,-350.87 482.91,-353.21 479.44,-355.5 475.62,-357.74 471.48,-359.93 467.02,-362.04 462.26,-364.09 457.2,-366.05 451.85,-367.94 446.22,-369.74 440.31,-371.45 434.14,-373.07 427.71,-374.59 421.02,-376.01 414.08,-377.33 406.89,-378.55 399.46,-379.65 391.79,-380.65 383.88,-381.54 375.74,-382.32 367.37,-382.99 358.79,-383.55 350,-384 341,-384.34 331.8,-384.56 322.42,-384.68 312.86,-384.69 303.15,-384.6 293.29,-384.4 283.31,-384.09 273.21,-383.69 263.03,-383.18 252.78,-382.57 242.5,-381.87 232.19,-381.07 221.91,-380.19 211.66,-379.21 201.49,-378.14 191.43,-376.99 181.52,-375.75 171.78,-374.44 162.26,-373.04 152.99,-371.58 144.01,-370.04 135.36,-368.43 127.08,-366.75 119.21,-365.02 111.78,-363.22 104.83,-361.37 98.4,-359.46 92.52,-357.5 87.23,-355.5 82.55,-353.46 78.52,-351.37 75.15,-349.26 72.49,-347.11 70.54,-344.95 69.33,-342.76 68.86,-340.55 69.16,-338.34 70.23,-336.12 72.06,-333.9 74.68,-331.69 78.06,-329.49 82.2,-327.31 87.09,-325.15 92.72,-323.03 99.06,-320.93 106.1,-318.89 113.81,-316.89 122.15,-314.94 131.1,-313.06 140.61,-311.24 150.66,-309.5 161.2,-307.83 172.18,-306.26 183.56,-304.77 195.29,-303.38 207.33,-302.1 219.62,-300.92 232.11,-299.86"/>
<text text-anchor="middle" x="296.64" y="-337.92" font-family="sans-serif" font-size="16.00">AccountsCancellationsContext</text>
</g>
<!-- LoginsContext -->
<g id="node2" class="node">
<title>LoginsContext</title>
<polygon fill="none" stroke="black" stroke-width="2" points="325.99,-184.21 327.76,-181.43 329.81,-178.7 332.16,-176.03 334.78,-173.43 337.66,-170.91 340.81,-168.48 344.2,-166.15 347.84,-163.93 351.7,-161.83 355.77,-159.85 360.05,-158.01 364.53,-156.3 369.18,-154.74 374,-153.32 378.98,-152.06 384.09,-150.95 389.33,-150 394.68,-149.22 400.14,-148.59 405.67,-148.12 411.28,-147.8 416.94,-147.65 422.64,-147.65 428.37,-147.8 434.12,-148.1 439.86,-148.54 445.59,-149.11 451.28,-149.82 456.94,-150.66 462.53,-151.62 468.06,-152.69 473.5,-153.87 478.84,-155.15 484.07,-156.52 489.17,-157.97 494.14,-159.51 498.96,-161.11 503.62,-162.79 508.1,-164.51 512.4,-166.29 516.5,-168.12 520.4,-169.98 524.08,-171.87 527.53,-173.79 530.75,-175.74 533.72,-177.69 536.44,-179.66 538.89,-181.64 541.08,-183.62 542.99,-185.61 544.61,-187.59 545.95,-189.56 547,-191.52 547.75,-193.48 548.2,-195.42 548.34,-197.35 548.19,-199.27 547.72,-201.16 546.95,-203.04 545.87,-204.9 544.49,-206.74 542.81,-208.56 540.83,-210.36 538.55,-212.13 535.98,-213.87 533.13,-215.59 530,-217.28 526.59,-218.93 522.93,-220.56 519.01,-222.15 514.85,-223.69 510.46,-225.2 505.85,-226.67 501.03,-228.08 496.01,-229.44 490.82,-230.75 485.45,-231.99 479.94,-233.17 474.29,-234.28 468.53,-235.32 462.66,-236.27 456.7,-237.14 450.68,-237.91 444.61,-238.59 438.51,-239.17 432.39,-239.64 426.28,-240 420.19,-240.24 414.15,-240.36 408.16,-240.36 402.25,-240.23 396.44,-239.96 390.74,-239.56 385.17,-239.02 379.74,-238.34 374.48,-237.51 369.4,-236.55 364.51,-235.44 359.83,-234.19 355.37,-232.8 351.15,-231.27 347.17,-229.61 343.45,-227.82 340,-225.9 336.82,-223.85 333.93,-221.7 331.34,-219.43 329.04,-217.06 327.05,-214.6 325.37,-212.06 324.01,-209.44 322.96,-206.75 322.23,-204.01 321.83,-201.22 321.73,-198.4 321.96,-195.56 322.5,-192.71 323.36,-189.86 324.52,-187.02 325.99,-184.21"/>
<text text-anchor="middle" x="435.64" y="-191.47" font-family="sans-serif" font-size="16.00">LoginsContext</text>
</g>
<!-- AccountsCancellationsContext&#45;&gt;LoginsContext -->
<g id="edge1" class="edge">
<title>AccountsCancellationsContext&#45;&gt;LoginsContext</title>
<path fill="none" stroke="black" stroke-width="2" d="M339.86,-295.81C356.91,-278.09 376.44,-257.79 393.4,-240.17"/>
<text text-anchor="middle" x="446.14" y="-265.4" font-family="sans-serif" font-size="12.00"> &#160;&#160;&#160;&#160;&#160;&#160;&#160;&#160;&#160;&#160;&#160;&#160;&#160;&#160;&#160;&#160;&#160;&#160;&#160;&#160;&#160;&#160;&#160;&#160;&#160;&#160;&#160;&#160;&#160;&#160;&#160;&#160;&#160;&#160;&#160;&#160;&#160;&#160;&#160;</text>
<polygon fill="white" stroke="transparent" points="374.4,-230.17 374.4,-249.17 390.4,-249.17 390.4,-230.17 374.4,-230.17"/>
<polyline fill="none" stroke="black" points="390.4,-230.17 390.4,-249.17 "/>
<text text-anchor="start" x="377.4" y="-236.57" font-family="sans-serif" font-size="12.00">D</text>
<polygon fill="white" stroke="transparent" points="390.4,-230.17 390.4,-249.17 412.4,-249.17 412.4,-230.17 390.4,-230.17"/>
<polygon fill="none" stroke="black" points="390.4,-230.17 390.4,-249.17 412.4,-249.17 412.4,-230.17 390.4,-230.17"/>
<text text-anchor="start" x="393.4" y="-236.57" font-family="sans-serif" font-size="12.00">CF</text>
<polygon fill="white" stroke="transparent" points="332.86,-286.81 332.86,-303.81 346.86,-303.81 346.86,-286.81 332.86,-286.81"/>
<text text-anchor="start" x="334.86" y="-292.21" font-family="sans-serif" font-size="12.00">U</text>
</g>
<!-- AccountsCreationContext -->
<g id="node3" class="node">
<title>AccountsCreationContext</title>
<polygon fill="none" stroke="black" stroke-width="2" points="776.78,-524.72 766.08,-523.66 755.64,-522.49 745.5,-521.22 735.69,-519.86 726.27,-518.4 717.26,-516.86 708.7,-515.24 700.63,-513.54 693.08,-511.77 686.07,-509.93 679.64,-508.04 673.79,-506.09 668.57,-504.09 663.97,-502.05 660.01,-499.97 656.7,-497.86 654.05,-495.72 652.06,-493.56 650.73,-491.39 650.05,-489.2 650.02,-487.01 650.63,-484.83 651.86,-482.64 653.7,-480.47 656.13,-478.31 659.13,-476.18 662.67,-474.07 666.74,-471.99 671.3,-469.94 676.33,-467.93 681.8,-465.97 687.68,-464.05 693.93,-462.18 700.53,-460.37 707.45,-458.62 714.65,-456.93 722.1,-455.31 729.77,-453.76 737.64,-452.29 745.67,-450.89 753.83,-449.57 762.1,-448.34 770.45,-447.2 778.86,-446.14 787.3,-445.18 795.75,-444.32 804.2,-443.56 812.62,-442.89 821,-442.33 829.32,-441.88 837.56,-441.53 845.73,-441.29 853.79,-441.17 861.76,-441.15 869.61,-441.25 877.33,-441.46 884.93,-441.79 892.4,-442.23 899.73,-442.79 906.92,-443.46 913.95,-444.24 920.84,-445.14 927.57,-446.15 934.14,-447.27 940.54,-448.49 946.77,-449.83 952.83,-451.26 958.7,-452.79 964.39,-454.42 969.87,-456.14 975.15,-457.95 980.22,-459.84 985.05,-461.81 989.65,-463.85 994,-465.96 998.09,-468.13 1001.89,-470.35 1005.4,-472.63 1008.6,-474.94 1011.48,-477.29 1014.01,-479.67 1016.18,-482.07 1017.97,-484.48 1019.37,-486.9 1020.35,-489.32 1020.91,-491.72 1021.02,-494.11 1020.67,-496.48 1019.84,-498.81 1018.53,-501.1 1016.72,-503.34 1014.4,-505.53 1011.56,-507.65 1008.19,-509.71 1004.3,-511.69 999.88,-513.59 994.93,-515.4 989.45,-517.12 983.46,-518.73 976.95,-520.25 969.94,-521.65 962.45,-522.94 954.49,-524.11 946.08,-525.17 937.25,-526.1 928.02,-526.9 918.41,-527.58 908.47,-528.13 898.23,-528.55 887.71,-528.84 876.96,-528.99 866.02,-529.02 854.93,-528.92 843.73,-528.69 832.47,-528.33 821.19,-527.85 809.93,-527.24 798.75,-526.52 787.68,-525.68 776.78,-524.72"/>
<text text-anchor="middle" x="844.64" y="-480.5" font-family="sans-serif" font-size="16.00">AccountsCreationContext</text>
</g>
<!-- AccountsCreationContext&#45;&gt;AccountsCancellationsContext -->
<g id="edge6" class="edge">
<title>AccountsCreationContext&#45;&gt;AccountsCancellationsContext</title>
<path fill="none" stroke="black" stroke-width="2" d="M668.67,-471.11C594.88,-462.34 509.11,-447.29 434.64,-421.44 407.93,-412.17 380.49,-397.71 357.18,-383.69"/>
<text text-anchor="middle" x="490.64" y="-411.84" font-family="sans-serif" font-size="12.00">Customer/Supplier</text>
<polygon fill="white" stroke="transparent" points="350.18,-374.69 350.18,-391.69 364.18,-391.69 364.18,-374.69 350.18,-374.69"/>
<text text-anchor="start" x="352.18" y="-380.09" font-family="sans-serif" font-size="12.00">D</text>
<polygon fill="white" stroke="transparent" points="661.67,-462.11 661.67,-479.11 675.67,-479.11 675.67,-462.11 661.67,-462.11"/>
<text text-anchor="start" x="663.67" y="-467.51" font-family="sans-serif" font-size="12.00">U</text>
</g>
<!-- AccountsCreationContext&#45;&gt;LoginsContext -->
<g id="edge4" class="edge">
<title>AccountsCreationContext&#45;&gt;LoginsContext</title>
<path fill="none" stroke="black" stroke-width="2" d="M699.32,-460.56C652.89,-446.95 604.55,-425.2 569.64,-390.44 526.88,-347.87 561.44,-310.58 525.64,-262 516.92,-250.16 505.44,-239.56 493.62,-230.5"/>
<text text-anchor="middle" x="625.64" y="-338.62" font-family="sans-serif" font-size="12.00">Customer/Supplier</text>
<polygon fill="white" stroke="transparent" points="486.62,-221.5 486.62,-238.5 500.62,-238.5 500.62,-221.5 486.62,-221.5"/>
<text text-anchor="start" x="488.62" y="-226.9" font-family="sans-serif" font-size="12.00">D</text>
<polygon fill="white" stroke="transparent" points="692.32,-451.56 692.32,-468.56 706.32,-468.56 706.32,-451.56 692.32,-451.56"/>
<text text-anchor="start" x="694.32" y="-456.96" font-family="sans-serif" font-size="12.00">U</text>
</g>
<!-- CreditBodyContext -->
<g id="node4" class="node">
<title>CreditBodyContext</title>
<polygon fill="none" stroke="black" stroke-width="2" points="743.22,-372.03 736.86,-369.96 730.83,-367.82 725.14,-365.62 719.82,-363.37 714.89,-361.07 710.37,-358.73 706.29,-356.36 702.65,-353.97 699.49,-351.57 696.8,-349.17 694.6,-346.77 692.91,-344.38 691.72,-342 691.04,-339.66 690.87,-337.34 691.21,-335.06 692.07,-332.82 693.43,-330.63 695.28,-328.49 697.62,-326.41 700.43,-324.39 703.71,-322.44 707.42,-320.55 711.57,-318.74 716.12,-317 721.05,-315.34 726.35,-313.76 731.99,-312.25 737.94,-310.83 744.17,-309.5 750.67,-308.24 757.4,-307.08 764.34,-306 771.46,-305 778.73,-304.09 786.12,-303.27 793.61,-302.54 801.16,-301.89 808.76,-301.34 816.37,-300.87 823.98,-300.49 831.55,-300.19 839.07,-299.99 846.52,-299.88 853.86,-299.85 861.09,-299.92 868.19,-300.07 875.14,-300.32 881.92,-300.66 888.52,-301.09 894.94,-301.61 901.14,-302.22 907.14,-302.93 912.92,-303.72 918.46,-304.61 923.77,-305.6 928.85,-306.67 933.67,-307.84 938.25,-309.1 942.57,-310.45 946.64,-311.89 950.46,-313.42 954.02,-315.03 957.32,-316.73 960.36,-318.51 963.14,-320.37 965.66,-322.31 967.92,-324.32 969.92,-326.4 971.66,-328.54 973.13,-330.75 974.35,-333 975.29,-335.31 975.97,-337.66 976.38,-340.04 976.52,-342.46 976.39,-344.89 975.98,-347.35 975.3,-349.81 974.33,-352.26 973.08,-354.71 971.54,-357.14 969.71,-359.55 967.59,-361.92 965.17,-364.24 962.45,-366.51 959.44,-368.72 956.13,-370.87 952.51,-372.93 948.59,-374.9 944.38,-376.78 939.87,-378.56 935.06,-380.23 929.96,-381.78 924.58,-383.21 918.93,-384.51 913,-385.67 906.82,-386.69 900.39,-387.57 893.73,-388.3 886.84,-388.88 879.75,-389.31 872.48,-389.58 865.03,-389.69 857.44,-389.65 849.73,-389.45 841.91,-389.09 834.01,-388.59 826.06,-387.93 818.09,-387.12 810.11,-386.17 802.17,-385.08 794.28,-383.86 786.49,-382.5 778.81,-381.03 771.28,-379.43 763.92,-377.73 756.77,-375.92 749.86,-374.02 743.22,-372.03"/>
<text text-anchor="middle" x="844.64" y="-337.92" font-family="sans-serif" font-size="16.00">CreditBodyContext</text>
</g>
<!-- AccountsCreationContext&#45;&gt;CreditBodyContext -->
<g id="edge2" class="edge">
<title>AccountsCreationContext&#45;&gt;CreditBodyContext</title>
<path fill="none" stroke="black" stroke-width="2" d="M844.64,-441.12C844.64,-424.79 844.64,-406.02 844.64,-389.29"/>
<text text-anchor="middle" x="920.14" y="-411.84" font-family="sans-serif" font-size="12.00"> &#160;&#160;&#160;&#160;&#160;&#160;&#160;&#160;&#160;&#160;&#160;&#160;&#160;&#160;&#160;&#160;&#160;&#160;&#160;&#160;&#160;&#160;&#160;&#160;&#160;&#160;&#160;&#160;&#160;&#160;&#160;&#160;&#160;&#160;&#160;&#160;&#160;&#160;&#160;</text>
<polygon fill="white" stroke="transparent" points="821.64,-379.29 821.64,-398.29 837.64,-398.29 837.64,-379.29 821.64,-379.29"/>
<polyline fill="none" stroke="black" points="837.64,-379.29 837.64,-398.29 "/>
<text text-anchor="start" x="824.64" y="-385.69" font-family="sans-serif" font-size="12.00">D</text>
<polygon fill="white" stroke="transparent" points="837.64,-379.29 837.64,-398.29 867.64,-398.29 867.64,-379.29 837.64,-379.29"/>
<polygon fill="none" stroke="black" points="837.64,-379.29 837.64,-398.29 867.64,-398.29 867.64,-379.29 837.64,-379.29"/>
<text text-anchor="start" x="840.64" y="-385.69" font-family="sans-serif" font-size="12.00">ACL</text>
<polygon fill="white" stroke="transparent" points="837.64,-432.12 837.64,-449.12 851.64,-449.12 851.64,-432.12 837.64,-432.12"/>
<text text-anchor="start" x="839.64" y="-437.52" font-family="sans-serif" font-size="12.00">U</text>
</g>
<!-- UserWalletContext -->
<g id="node5" class="node">
<title>UserWalletContext</title>
<polygon fill="none" stroke="black" stroke-width="2" points="1291,-330.03 1293.51,-332.8 1295.63,-335.59 1297.36,-338.37 1298.69,-341.15 1299.62,-343.92 1300.13,-346.65 1300.22,-349.35 1299.89,-352 1299.14,-354.58 1297.96,-357.11 1296.37,-359.55 1294.35,-361.91 1291.92,-364.19 1289.09,-366.36 1285.85,-368.43 1282.22,-370.39 1278.21,-372.24 1273.83,-373.97 1269.1,-375.59 1264.03,-377.07 1258.64,-378.44 1252.95,-379.68 1246.96,-380.79 1240.72,-381.77 1234.23,-382.63 1227.51,-383.36 1220.6,-383.97 1213.51,-384.46 1206.27,-384.83 1198.9,-385.09 1191.42,-385.23 1183.87,-385.26 1176.26,-385.18 1168.63,-385 1160.99,-384.72 1153.37,-384.35 1145.79,-383.89 1138.28,-383.33 1130.87,-382.7 1123.57,-381.98 1116.41,-381.19 1109.4,-380.32 1102.57,-379.38 1095.93,-378.37 1089.52,-377.3 1083.33,-376.17 1077.39,-374.98 1071.71,-373.73 1066.31,-372.43 1061.2,-371.07 1056.39,-369.65 1051.89,-368.19 1047.71,-366.68 1043.85,-365.12 1040.34,-363.51 1037.16,-361.85 1034.32,-360.15 1031.83,-358.4 1029.69,-356.61 1027.9,-354.77 1026.47,-352.9 1025.38,-350.98 1024.65,-349.03 1024.26,-347.04 1024.22,-345.02 1024.52,-342.96 1025.16,-340.88 1026.13,-338.77 1027.42,-336.63 1029.04,-334.48 1030.98,-332.32 1033.22,-330.15 1035.76,-327.97 1038.6,-325.8 1041.72,-323.63 1045.13,-321.48 1048.8,-319.35 1052.73,-317.24 1056.92,-315.18 1061.34,-313.15 1066.01,-311.17 1070.89,-309.26 1075.99,-307.41 1081.29,-305.63 1086.79,-303.94 1092.46,-302.34 1098.31,-300.83 1104.31,-299.43 1110.47,-298.15 1116.75,-296.99 1123.16,-295.95 1129.68,-295.06 1136.29,-294.3 1142.98,-293.68 1149.74,-293.22 1156.54,-292.92 1163.39,-292.77 1170.25,-292.79 1177.12,-292.97 1183.98,-293.31 1190.81,-293.82 1197.59,-294.5 1204.3,-295.34 1210.94,-296.35 1217.47,-297.51 1223.88,-298.84 1230.16,-300.31 1236.28,-301.93 1242.23,-303.69 1247.98,-305.59 1253.52,-307.61 1258.83,-309.76 1263.9,-312.01 1268.69,-314.36 1273.21,-316.81 1277.43,-319.33 1281.33,-321.93 1284.9,-324.58 1288.13,-327.29 1291,-330.03"/>
<text text-anchor="middle" x="1158.64" y="-337.92" font-family="sans-serif" font-size="16.00">UserWalletContext</text>
</g>
<!-- AccountsCreationContext&#45;&gt;UserWalletContext -->
<g id="edge3" class="edge">
<title>AccountsCreationContext&#45;&gt;UserWalletContext</title>
<path fill="none" stroke="black" stroke-width="2" d="M937.35,-447.71C957.99,-439.39 979.66,-430.36 999.64,-421.44 1030.02,-407.89 1063.06,-391.76 1091.12,-377.64"/>
<text text-anchor="middle" x="1060.14" y="-411.84" font-family="sans-serif" font-size="12.00">Partnership</text>
</g>
<!-- WithdrawalsContext -->
<g id="node6" class="node">
<title>WithdrawalsContext</title>
<polygon fill="none" stroke="black" stroke-width="2" points="1221.91,-28 1226.6,-30.5 1230.89,-33.03 1234.79,-35.6 1238.26,-38.19 1241.29,-40.79 1243.87,-43.4 1245.98,-45.99 1247.62,-48.57 1248.78,-51.12 1249.44,-53.64 1249.61,-56.12 1249.28,-58.54 1248.44,-60.91 1247.11,-63.21 1245.29,-65.45 1242.97,-67.6 1240.17,-69.67 1236.91,-71.66 1233.18,-73.55 1229.01,-75.35 1224.41,-77.06 1219.4,-78.66 1213.99,-80.16 1208.21,-81.56 1202.09,-82.85 1195.64,-84.04 1188.89,-85.13 1181.86,-86.11 1174.58,-86.98 1167.09,-87.76 1159.4,-88.43 1151.54,-89 1143.55,-89.47 1135.46,-89.84 1127.28,-90.12 1119.06,-90.31 1110.81,-90.4 1102.57,-90.41 1094.36,-90.32 1086.21,-90.16 1078.15,-89.9 1070.19,-89.57 1062.37,-89.15 1054.7,-88.66 1047.2,-88.08 1039.9,-87.43 1032.82,-86.71 1025.96,-85.91 1019.35,-85.04 1013.01,-84.09 1006.93,-83.07 1001.14,-81.98 995.65,-80.82 990.46,-79.59 985.59,-78.29 981.03,-76.91 976.8,-75.47 972.9,-73.97 969.32,-72.39 966.09,-70.75 963.19,-69.04 960.62,-67.27 958.39,-65.43 956.5,-63.54 954.94,-61.59 953.71,-59.58 952.82,-57.53 952.25,-55.42 952,-53.27 952.08,-51.08 952.48,-48.85 953.19,-46.59 954.21,-44.31 955.54,-42.01 957.18,-39.69 959.12,-37.37 961.35,-35.05 963.88,-32.73 966.69,-30.44 969.79,-28.16 973.17,-25.92 976.83,-23.72 980.76,-21.57 984.96,-19.48 989.43,-17.45 994.14,-15.49 999.12,-13.62 1004.33,-11.84 1009.78,-10.16 1015.47,-8.59 1021.38,-7.13 1027.5,-5.8 1033.82,-4.59 1040.34,-3.52 1047.04,-2.59 1053.92,-1.81 1060.94,-1.18 1068.11,-0.7 1075.41,-0.38 1082.82,-0.22 1090.32,-0.23 1097.9,-0.4 1105.53,-0.73 1113.2,-1.22 1120.89,-1.88 1128.57,-2.7 1136.22,-3.67 1143.81,-4.8 1151.33,-6.07 1158.75,-7.49 1166.04,-9.05 1173.18,-10.73 1180.15,-12.55 1186.92,-14.47 1193.45,-16.51 1199.74,-18.65 1205.76,-20.87 1211.47,-23.18 1216.86,-25.56 1221.91,-28"/>
<text text-anchor="middle" x="1092.64" y="-44.97" font-family="sans-serif" font-size="16.00">WithdrawalsContext</text>
</g>
<!-- AccountsCreationContext&#45;&gt;WithdrawalsContext -->
<g id="edge5" class="edge">
<title>AccountsCreationContext&#45;&gt;WithdrawalsContext</title>
<path fill="none" stroke="black" stroke-width="2" d="M995.21,-466.39C1229.24,-436.56 1662.64,-365.94 1750.64,-244 1775.98,-208.88 1778.95,-179.33 1750.64,-146.55 1687.05,-72.93 1422.11,-54.3 1248.42,-50.16"/>
<text text-anchor="middle" x="1789.64" y="-265.4" font-family="sans-serif" font-size="12.00">Customer/Supplier</text>
<polygon fill="white" stroke="transparent" points="1241.42,-41.16 1241.42,-58.16 1255.42,-58.16 1255.42,-41.16 1241.42,-41.16"/>
<text text-anchor="start" x="1243.42" y="-46.56" font-family="sans-serif" font-size="12.00">D</text>
<polygon fill="white" stroke="transparent" points="988.21,-457.39 988.21,-474.39 1002.21,-474.39 1002.21,-457.39 988.21,-457.39"/>
<text text-anchor="start" x="990.21" y="-462.79" font-family="sans-serif" font-size="12.00">U</text>
</g>
<!-- UserWalletContext&#45;&gt;WithdrawalsContext -->
<g id="edge7" class="edge">
<title>UserWalletContext&#45;&gt;WithdrawalsContext</title>
<path fill="none" stroke="black" stroke-width="2" d="M1069.56,-309.52C1049.39,-303.31 1027.93,-297.37 1007.64,-293 917.29,-273.54 656.02,-313.09 594.64,-244 565.88,-211.62 567.09,-179.97 594.64,-146.55 639.32,-92.35 821.64,-68.12 952.75,-57.56"/>
<text text-anchor="middle" x="650.64" y="-192.17" font-family="sans-serif" font-size="12.00">Customer/Supplier</text>
<polygon fill="white" stroke="transparent" points="945.75,-48.56 945.75,-65.56 959.75,-65.56 959.75,-48.56 945.75,-48.56"/>
<text text-anchor="start" x="947.75" y="-53.96" font-family="sans-serif" font-size="12.00">D</text>
<polygon fill="white" stroke="transparent" points="1062.56,-300.52 1062.56,-317.52 1076.56,-317.52 1076.56,-300.52 1062.56,-300.52"/>
<text text-anchor="start" x="1064.56" y="-305.92" font-family="sans-serif" font-size="12.00">U</text>
</g>
<!-- InternalWalletContext -->
<g id="node7" class="node">
<title>InternalWalletContext</title>
<polygon fill="none" stroke="black" stroke-width="2" points="750.08,-218.21 744.67,-215.78 739.66,-213.29 735.08,-210.77 730.94,-208.21 727.25,-205.64 724.05,-203.06 721.33,-200.48 719.12,-197.91 717.43,-195.36 716.26,-192.83 715.63,-190.35 715.53,-187.9 715.97,-185.5 716.94,-183.16 718.46,-180.89 720.5,-178.68 723.06,-176.55 726.14,-174.5 729.72,-172.54 733.79,-170.66 738.33,-168.87 743.32,-167.18 748.75,-165.58 754.58,-164.08 760.81,-162.68 767.39,-161.39 774.32,-160.19 781.55,-159.09 789.07,-158.09 796.83,-157.2 804.82,-156.4 813,-155.7 821.35,-155.1 829.82,-154.6 838.4,-154.19 847.04,-153.88 855.73,-153.65 864.42,-153.52 873.1,-153.47 881.73,-153.51 890.29,-153.64 898.75,-153.85 907.08,-154.15 915.27,-154.53 923.29,-154.99 931.11,-155.53 938.72,-156.15 946.1,-156.84 953.24,-157.62 960.11,-158.47 966.71,-159.4 973.02,-160.41 979.04,-161.49 984.74,-162.65 990.13,-163.88 995.19,-165.19 999.92,-166.58 1004.32,-168.03 1008.39,-169.56 1012.11,-171.17 1015.49,-172.84 1018.52,-174.58 1021.21,-176.39 1023.56,-178.27 1025.57,-180.21 1027.24,-182.21 1028.57,-184.27 1029.56,-186.38 1030.22,-188.54 1030.54,-190.75 1030.54,-193 1030.21,-195.28 1029.55,-197.6 1028.57,-199.93 1027.28,-202.29 1025.67,-204.66 1023.74,-207.03 1021.5,-209.4 1018.96,-211.75 1016.11,-214.09 1012.96,-216.4 1009.5,-218.67 1005.75,-220.9 1001.71,-223.08 997.38,-225.19 992.76,-227.23 987.87,-229.19 982.69,-231.06 977.25,-232.84 971.54,-234.51 965.58,-236.07 959.37,-237.51 952.92,-238.83 946.23,-240.01 939.34,-241.05 932.23,-241.94 924.93,-242.69 917.45,-243.28 909.81,-243.72 902.02,-243.99 894.1,-244.11 886.07,-244.06 877.96,-243.84 869.77,-243.47 861.54,-242.92 853.29,-242.22 845.03,-241.36 836.81,-240.35 828.64,-239.18 820.54,-237.87 812.56,-236.42 804.71,-234.83 797.02,-233.12 789.52,-231.28 782.24,-229.34 775.21,-227.28 768.45,-225.14 761.99,-222.9 755.86,-220.59 750.08,-218.21"/>
<text text-anchor="middle" x="882.64" y="-191.47" font-family="sans-serif" font-size="16.00">InternalWalletContext</text>
</g>
<!-- UserWalletContext&#45;&gt;InternalWalletContext -->
<g id="edge8" class="edge">
<title>UserWalletContext&#45;&gt;InternalWalletContext</title>
<path fill="none" stroke="black" stroke-width="2" d="M1087.56,-303.52C1048.91,-283.29 1001.02,-258.23 961.25,-237.42"/>
<text text-anchor="middle" x="1063.14" y="-265.4" font-family="sans-serif" font-size="12.00">Partnership</text>
</g>
<!-- TransactionsContext -->
<g id="node8" class="node">
<title>TransactionsContext</title>
<polygon fill="none" stroke="black" stroke-width="2" points="1087.88,-175.48 1092.07,-172.88 1096.6,-170.36 1101.45,-167.91 1106.6,-165.56 1112.04,-163.31 1117.75,-161.17 1123.7,-159.14 1129.87,-157.25 1136.26,-155.48 1142.83,-153.86 1149.57,-152.39 1156.46,-151.07 1163.48,-149.9 1170.6,-148.9 1177.81,-148.05 1185.09,-147.38 1192.42,-146.87 1199.79,-146.52 1207.17,-146.34 1214.54,-146.32 1221.89,-146.47 1229.2,-146.78 1236.46,-147.24 1243.64,-147.85 1250.74,-148.61 1257.74,-149.51 1264.62,-150.54 1271.37,-151.7 1277.98,-152.99 1284.43,-154.38 1290.71,-155.89 1296.8,-157.49 1302.7,-159.18 1308.4,-160.96 1313.87,-162.81 1319.12,-164.73 1324.13,-166.7 1328.88,-168.73 1333.38,-170.8 1337.6,-172.9 1341.54,-175.03 1345.2,-177.18 1348.55,-179.35 1351.6,-181.52 1354.33,-183.7 1356.74,-185.87 1358.82,-188.04 1360.55,-190.19 1361.95,-192.32 1362.99,-194.43 1363.67,-196.51 1363.99,-198.57 1363.95,-200.59 1363.53,-202.58 1362.74,-204.54 1361.58,-206.45 1360.04,-208.33 1358.12,-210.16 1355.82,-211.95 1353.15,-213.7 1350.1,-215.4 1346.69,-217.06 1342.91,-218.67 1338.77,-220.23 1334.28,-221.74 1329.45,-223.21 1324.28,-224.62 1318.79,-225.98 1312.99,-227.28 1306.89,-228.53 1300.52,-229.73 1293.87,-230.86 1286.98,-231.93 1279.85,-232.93 1272.52,-233.87 1264.99,-234.74 1257.3,-235.53 1249.46,-236.25 1241.5,-236.89 1233.44,-237.44 1225.3,-237.9 1217.12,-238.28 1208.92,-238.55 1200.71,-238.73 1192.55,-238.81 1184.43,-238.78 1176.41,-238.64 1168.49,-238.39 1160.71,-238.02 1153.1,-237.53 1145.68,-236.92 1138.47,-236.18 1131.49,-235.32 1124.79,-234.34 1118.36,-233.23 1112.25,-231.99 1106.46,-230.63 1101.01,-229.14 1095.93,-227.53 1091.23,-225.79 1086.93,-223.95 1083.03,-221.98 1079.55,-219.91 1076.5,-217.74 1073.9,-215.47 1071.73,-213.1 1070.02,-210.66 1068.75,-208.14 1067.95,-205.55 1067.6,-202.9 1067.69,-200.21 1068.24,-197.47 1069.24,-194.71 1070.67,-191.93 1072.53,-189.14 1074.8,-186.35 1077.49,-183.58 1080.58,-180.84 1084.04,-178.14 1087.88,-175.48"/>
<text text-anchor="middle" x="1219.64" y="-191.47" font-family="sans-serif" font-size="16.00">TransactionsContext</text>
</g>
<!-- UserWalletContext&#45;&gt;TransactionsContext -->
<g id="edge9" class="edge">
<title>UserWalletContext&#45;&gt;TransactionsContext</title>
<path fill="none" stroke="black" stroke-width="2" d="M1178.78,-293.02C1186.14,-275.6 1194.41,-256.02 1201.57,-239.05"/>
<text text-anchor="middle" x="1266.14" y="-265.4" font-family="sans-serif" font-size="12.00"> &#160;&#160;&#160;&#160;&#160;&#160;&#160;&#160;&#160;&#160;&#160;&#160;&#160;&#160;&#160;&#160;&#160;&#160;&#160;&#160;&#160;&#160;&#160;&#160;&#160;&#160;&#160;&#160;&#160;&#160;&#160;&#160;&#160;&#160;&#160;&#160;&#160;&#160;&#160;</text>
<polygon fill="white" stroke="transparent" points="1194.57,-230.05 1194.57,-247.05 1208.57,-247.05 1208.57,-230.05 1194.57,-230.05"/>
<text text-anchor="start" x="1196.57" y="-235.45" font-family="sans-serif" font-size="12.00">D</text>
<polygon fill="white" stroke="transparent" points="1154.78,-283.02 1154.78,-302.02 1170.78,-302.02 1170.78,-283.02 1154.78,-283.02"/>
<polyline fill="none" stroke="black" points="1170.78,-283.02 1170.78,-302.02 "/>
<text text-anchor="start" x="1157.78" y="-289.42" font-family="sans-serif" font-size="12.00">U</text>
<polygon fill="white" stroke="transparent" points="1170.78,-283.02 1170.78,-302.02 1203.78,-302.02 1203.78,-283.02 1170.78,-283.02"/>
<polygon fill="none" stroke="black" points="1170.78,-283.02 1170.78,-302.02 1203.78,-302.02 1203.78,-283.02 1170.78,-283.02"/>
<text text-anchor="start" x="1173.78" y="-289.42" font-family="sans-serif" font-size="12.00">OHS</text>
</g>
<!-- NftTransactionContext -->
<g id="node9" class="node">
<title>NftTransactionContext</title>
<polygon fill="none" stroke="black" stroke-width="2" points="1510.6,-154.15 1520.23,-153.11 1529.97,-152.19 1539.75,-151.4 1549.55,-150.74 1559.32,-150.2 1569.04,-149.8 1578.66,-149.54 1588.14,-149.42 1597.47,-149.43 1606.59,-149.59 1615.49,-149.88 1624.12,-150.32 1632.48,-150.9 1640.53,-151.61 1648.25,-152.46 1655.63,-153.45 1662.63,-154.56 1669.26,-155.81 1675.49,-157.17 1681.32,-158.66 1686.73,-160.26 1691.72,-161.96 1696.29,-163.77 1700.44,-165.67 1704.16,-167.67 1707.45,-169.74 1710.32,-171.89 1712.78,-174.1 1714.83,-176.38 1716.48,-178.7 1717.73,-181.07 1718.6,-183.47 1719.09,-185.9 1719.22,-188.34 1718.99,-190.8 1718.42,-193.26 1717.52,-195.71 1716.3,-198.15 1714.77,-200.56 1712.95,-202.95 1710.83,-205.3 1708.44,-207.61 1705.77,-209.86 1702.85,-212.06 1699.67,-214.2 1696.25,-216.26 1692.59,-218.26 1688.7,-220.17 1684.58,-222.01 1680.24,-223.75 1675.68,-225.4 1670.91,-226.96 1665.92,-228.43 1660.73,-229.79 1655.33,-231.05 1649.74,-232.2 1643.94,-233.25 1637.95,-234.2 1631.77,-235.03 1625.4,-235.76 1618.84,-236.38 1612.11,-236.89 1605.21,-237.3 1598.14,-237.59 1590.91,-237.78 1583.54,-237.86 1576.03,-237.84 1568.4,-237.71 1560.66,-237.49 1552.81,-237.16 1544.89,-236.73 1536.91,-236.2 1528.88,-235.58 1520.83,-234.87 1512.78,-234.06 1504.75,-233.16 1496.77,-232.18 1488.86,-231.11 1481.06,-229.96 1473.38,-228.72 1465.85,-227.41 1458.52,-226.02 1451.39,-224.56 1444.52,-223.02 1437.92,-221.42 1431.63,-219.75 1425.67,-218.02 1420.07,-216.23 1414.87,-214.38 1410.09,-212.48 1405.75,-210.53 1401.89,-208.54 1398.51,-206.5 1395.66,-204.42 1393.33,-202.31 1391.55,-200.17 1390.34,-198 1389.71,-195.81 1389.66,-193.61 1390.21,-191.4 1391.35,-189.18 1393.09,-186.96 1395.42,-184.75 1398.34,-182.55 1401.85,-180.37 1405.93,-178.22 1410.56,-176.09 1415.74,-174 1421.43,-171.96 1427.63,-169.96 1434.3,-168.02 1441.41,-166.15 1448.95,-164.34 1456.87,-162.61 1465.15,-160.96 1473.74,-159.4 1482.63,-157.93 1491.75,-156.56 1501.09,-155.3 1510.6,-154.15"/>
<text text-anchor="middle" x="1565.64" y="-191.47" font-family="sans-serif" font-size="16.00">NftTransactionContext</text>
</g>
<!-- UserWalletContext&#45;&gt;NftTransactionContext -->
<g id="edge10" class="edge">
<title>UserWalletContext&#45;&gt;NftTransactionContext</title>
<path fill="none" stroke="black" stroke-width="2" d="M1253.81,-307.39C1283.26,-297.04 1315.8,-285.58 1345.64,-275 1388.08,-259.95 1435.08,-243.15 1474.7,-228.94"/>
<text text-anchor="middle" x="1457.14" y="-265.4" font-family="sans-serif" font-size="12.00"> &#160;&#160;&#160;&#160;&#160;&#160;&#160;&#160;&#160;&#160;&#160;&#160;&#160;&#160;&#160;&#160;&#160;&#160;&#160;&#160;&#160;&#160;&#160;&#160;&#160;&#160;&#160;&#160;&#160;&#160;&#160;&#160;&#160;&#160;&#160;&#160;&#160;&#160;&#160;</text>
<polygon fill="white" stroke="transparent" points="1467.7,-219.94 1467.7,-236.94 1481.7,-236.94 1481.7,-219.94 1467.7,-219.94"/>
<text text-anchor="start" x="1469.7" y="-225.34" font-family="sans-serif" font-size="12.00">D</text>
<polygon fill="white" stroke="transparent" points="1229.81,-297.39 1229.81,-316.39 1245.81,-316.39 1245.81,-297.39 1229.81,-297.39"/>
<polyline fill="none" stroke="black" points="1245.81,-297.39 1245.81,-316.39 "/>
<text text-anchor="start" x="1232.81" y="-303.79" font-family="sans-serif" font-size="12.00">U</text>
<polygon fill="white" stroke="transparent" points="1245.81,-297.39 1245.81,-316.39 1278.81,-316.39 1278.81,-297.39 1245.81,-297.39"/>
<polygon fill="none" stroke="black" points="1245.81,-297.39 1245.81,-316.39 1278.81,-316.39 1278.81,-297.39 1245.81,-297.39"/>
<text text-anchor="start" x="1248.81" y="-303.79" font-family="sans-serif" font-size="12.00">OHS</text>
</g>
<!-- InternalWalletContext&#45;&gt;WithdrawalsContext -->
<g id="edge11" class="edge">
<title>InternalWalletContext&#45;&gt;WithdrawalsContext</title>
<path fill="none" stroke="black" stroke-width="2" d="M938.36,-155.93C969.23,-134.69 1007.44,-108.4 1038.11,-87.3"/>
<text text-anchor="middle" x="1049.64" y="-118.95" font-family="sans-serif" font-size="12.00">Customer/Supplier</text>
<polygon fill="white" stroke="transparent" points="1031.11,-78.3 1031.11,-95.3 1045.11,-95.3 1045.11,-78.3 1031.11,-78.3"/>
<text text-anchor="start" x="1033.11" y="-83.7" font-family="sans-serif" font-size="12.00">D</text>
<polygon fill="white" stroke="transparent" points="931.36,-146.93 931.36,-163.93 945.36,-163.93 945.36,-146.93 931.36,-146.93"/>
<text text-anchor="start" x="933.36" y="-152.33" font-family="sans-serif" font-size="12.00">U</text>
</g>
<!-- TransactionsContext&#45;&gt;WithdrawalsContext -->
<g id="edge12" class="edge">
<title>TransactionsContext&#45;&gt;WithdrawalsContext</title>
<path fill="none" stroke="black" stroke-width="2" d="M1178.76,-147.76C1162.51,-129.28 1144,-108.21 1128.31,-90.36"/>
<text text-anchor="middle" x="1215.64" y="-118.95" font-family="sans-serif" font-size="12.00">Customer/Supplier</text>
<polygon fill="white" stroke="transparent" points="1121.31,-81.36 1121.31,-98.36 1135.31,-98.36 1135.31,-81.36 1121.31,-81.36"/>
<text text-anchor="start" x="1123.31" y="-86.76" font-family="sans-serif" font-size="12.00">D</text>
<polygon fill="white" stroke="transparent" points="1171.76,-138.76 1171.76,-155.76 1185.76,-155.76 1185.76,-138.76 1171.76,-138.76"/>
<text text-anchor="start" x="1173.76" y="-144.16" font-family="sans-serif" font-size="12.00">U</text>
</g>
<!-- NftTransactionContext&#45;&gt;WithdrawalsContext -->
<g id="edge13" class="edge">
<title>NftTransactionContext&#45;&gt;WithdrawalsContext</title>
<path fill="none" stroke="black" stroke-width="2" d="M1459.78,-161.93C1382.85,-138.43 1279.04,-106.72 1201.44,-83.01"/>
<text text-anchor="middle" x="1398.64" y="-118.95" font-family="sans-serif" font-size="12.00">Customer/Supplier</text>
<polygon fill="white" stroke="transparent" points="1194.44,-74.01 1194.44,-91.01 1208.44,-91.01 1208.44,-74.01 1194.44,-74.01"/>
<text text-anchor="start" x="1196.44" y="-79.41" font-family="sans-serif" font-size="12.00">D</text>
<polygon fill="white" stroke="transparent" points="1452.78,-152.93 1452.78,-169.93 1466.78,-169.93 1466.78,-152.93 1452.78,-152.93"/>
<text text-anchor="start" x="1454.78" y="-158.33" font-family="sans-serif" font-size="12.00">U</text>
</g>
<!-- AccountsRequestsContext -->
<g id="node10" class="node">
<title>AccountsRequestsContext</title>
<polygon fill="none" stroke="black" stroke-width="2" points="720.7,-594.69 729.15,-592.7 737.9,-590.8 746.9,-589.01 756.12,-587.33 765.53,-585.78 775.09,-584.36 784.77,-583.08 794.53,-581.94 804.34,-580.94 814.18,-580.1 824,-579.4 833.77,-578.87 843.48,-578.5 853.08,-578.28 862.56,-578.23 871.89,-578.34 881.04,-578.61 890,-579.03 898.74,-579.62 907.25,-580.35 915.5,-581.24 923.49,-582.27 931.2,-583.44 938.61,-584.74 945.72,-586.17 952.52,-587.72 958.99,-589.39 965.13,-591.16 970.94,-593.03 976.41,-594.99 981.53,-597.04 986.3,-599.16 990.72,-601.34 994.79,-603.58 998.5,-605.86 1001.86,-608.19 1004.86,-610.54 1007.5,-612.92 1009.78,-615.31 1011.69,-617.7 1013.25,-620.09 1014.44,-622.48 1015.27,-624.84 1015.74,-627.18 1015.84,-629.49 1015.57,-631.77 1014.93,-634 1013.93,-636.18 1012.55,-638.32 1010.79,-640.39 1008.66,-642.41 1006.16,-644.36 1003.27,-646.25 1000.01,-648.07 996.37,-649.81 992.35,-651.48 987.95,-653.08 983.18,-654.59 978.03,-656.03 972.51,-657.39 966.62,-658.67 960.37,-659.87 953.77,-660.99 946.82,-662.03 939.54,-662.99 931.93,-663.86 924.01,-664.65 915.79,-665.36 907.29,-665.99 898.52,-666.54 889.52,-667 880.29,-667.39 870.86,-667.68 861.25,-667.9 851.5,-668.03 841.62,-668.07 831.66,-668.03 821.63,-667.9 811.58,-667.68 801.53,-667.38 791.52,-666.99 781.58,-666.5 771.75,-665.93 762.06,-665.26 752.55,-664.5 743.26,-663.65 734.22,-662.7 725.46,-661.65 717.03,-660.52 708.95,-659.29 701.26,-657.96 693.99,-656.54 687.17,-655.03 680.82,-653.43 674.99,-651.74 669.68,-649.96 664.92,-648.09 660.74,-646.15 657.15,-644.13 654.16,-642.03 651.79,-639.86 650.05,-637.63 648.95,-635.35 648.48,-633.01 648.66,-630.62 649.47,-628.19 650.92,-625.73 653,-623.25 655.69,-620.75 658.99,-618.24 662.87,-615.73 667.33,-613.23 672.34,-610.75 677.88,-608.3 683.92,-605.89 690.43,-603.52 697.4,-601.21 704.79,-598.96 712.56,-596.78 720.7,-594.69"/>
<text text-anchor="middle" x="844.64" y="-622.79" font-family="sans-serif" font-size="16.00">AccountsRequestsContext</text>
</g>
<!-- AccountsRequestsContext&#45;&gt;AccountsCreationContext -->
<g id="edge14" class="edge">
<title>AccountsRequestsContext&#45;&gt;AccountsCreationContext</title>
<path fill="none" stroke="black" stroke-width="2" d="M844.64,-578.1C844.64,-562.2 844.64,-544.56 844.64,-528.97"/>
<text text-anchor="middle" x="879.14" y="-550.56" font-family="sans-serif" font-size="12.00">Partnership</text>
</g>
<!-- NftCreationContext -->
<g id="node11" class="node">
<title>NftCreationContext</title>
<polygon fill="none" stroke="black" stroke-width="2" points="152.51,-239.2 143.34,-239.26 134.22,-239.2 125.19,-239.01 116.29,-238.71 107.56,-238.28 99.02,-237.74 90.71,-237.07 82.66,-236.29 74.9,-235.39 67.46,-234.38 60.37,-233.25 53.64,-232.02 47.3,-230.69 41.37,-229.25 35.87,-227.71 30.8,-226.09 26.17,-224.37 22.01,-222.57 18.31,-220.69 15.08,-218.74 12.31,-216.73 10.02,-214.65 8.18,-212.51 6.81,-210.33 5.89,-208.1 5.41,-205.84 5.37,-203.54 5.74,-201.22 6.53,-198.89 7.7,-196.55 9.25,-194.2 11.15,-191.86 13.4,-189.53 15.97,-187.21 18.85,-184.92 22.02,-182.66 25.45,-180.44 29.14,-178.26 33.06,-176.13 37.19,-174.06 41.53,-172.05 46.05,-170.11 50.74,-168.24 55.59,-166.45 60.58,-164.74 65.69,-163.12 70.93,-161.59 76.27,-160.16 81.72,-158.82 87.25,-157.6 92.86,-156.47 98.55,-155.46 104.31,-154.55 110.13,-153.77 116.01,-153.09 121.94,-152.54 127.93,-152.1 133.96,-151.78 140.03,-151.58 146.14,-151.5 152.28,-151.54 158.46,-151.7 164.65,-151.97 170.87,-152.37 177.1,-152.87 183.34,-153.5 189.58,-154.23 195.81,-155.07 202.02,-156.02 208.2,-157.08 214.33,-158.23 220.42,-159.49 226.43,-160.83 232.36,-162.27 238.19,-163.79 243.91,-165.4 249.49,-167.08 254.91,-168.84 260.16,-170.67 265.21,-172.56 270.05,-174.51 274.64,-176.51 278.98,-178.56 283.04,-180.66 286.79,-182.8 290.21,-184.96 293.28,-187.16 295.99,-189.37 298.3,-191.61 300.21,-193.85 301.69,-196.09 302.73,-198.34 303.31,-200.58 303.42,-202.81 303.05,-205.01 302.18,-207.2 300.82,-209.35 298.95,-211.47 296.58,-213.54 293.7,-215.58 290.32,-217.55 286.45,-219.48 282.08,-221.33 277.23,-223.13 271.92,-224.85 266.16,-226.49 259.97,-228.05 253.37,-229.52 246.38,-230.91 239.02,-232.2 231.34,-233.39 223.35,-234.48 215.09,-235.46 206.58,-236.34 197.87,-237.1 188.99,-237.76 179.98,-238.3 170.87,-238.72 161.7,-239.02 152.51,-239.2"/>
<text text-anchor="middle" x="151.64" y="-191.47" font-family="sans-serif" font-size="16.00">NftCreationContext</text>
</g>
<!-- NftCreationContext&#45;&gt;WithdrawalsContext -->
<g id="edge15" class="edge">
<title>NftCreationContext&#45;&gt;WithdrawalsContext</title>
<path fill="none" stroke="black" stroke-width="2" d="M244.51,-165.36C266.74,-158.83 290.45,-152.17 312.64,-146.55 532.06,-90.99 794.61,-66.8 952.27,-56.65"/>
<text text-anchor="middle" x="494.64" y="-118.95" font-family="sans-serif" font-size="12.00">Customer/Supplier</text>
<polygon fill="white" stroke="transparent" points="945.27,-47.65 945.27,-64.65 959.27,-64.65 959.27,-47.65 945.27,-47.65"/>
<text text-anchor="start" x="947.27" y="-53.05" font-family="sans-serif" font-size="12.00">D</text>
<polygon fill="white" stroke="transparent" points="237.51,-156.36 237.51,-173.36 251.51,-173.36 251.51,-156.36 237.51,-156.36"/>
<text text-anchor="start" x="239.51" y="-161.76" font-family="sans-serif" font-size="12.00">U</text>
</g>
</g>
</svg>
